<svg version="1.1" id="Layer_1" xmlns="http://www.w3.org/2000/svg" x="0" y="0" viewBox="0 0 196 61.8" xml:space="preserve"><style>.st0{fill:#cccecf}.st1{fill:#888a8c}.st2{fill:#008393}</style><path class="st0" d="M8.7-2423.1c.3-.3.6-.5.7-.6l.2-.2-.1-.1.1.1c2.4-2.1 4.9-4 7.8-5.6l-.1-.3c-9.9 1.2-17.7 9.4-18.4 19.5l.3.1c2.3-4.6 4.9-8 6.9-10.2 1.1-1.3 2-2.1 2.6-2.7m30.8 6.7-.2.1-.2-.1c-.2.8-.5 1.5-.9 2.2-.3.6-2.6 5.3-8.5 8.8-1.5 1-3.3 1.8-5.7 2.5 3.2-2 7.5-5.9 7.5-12.2 0-1-.1-2.1-.3-3.2 2.9-.6 4.8-1.3 6.2-1.9l.2-.1-.1-.2c-3.1-4.8-8.1-8.3-14-9.4h-.1l-.1.1c-1.3 2.1-2.9 5.6-2.9 10.7 0 2 .2 4.2.8 6.7h-.5c-10.6 0-17 4.1-20.8 9.2l-.1.1v.1c2.7 8.5 10.6 14.7 20 14.7 11.6 0 21-9.4 21-21 .1-2.3-.4-4.8-1.3-7.1m-13.2 21.2v-.2c-1.7.3-3.3.4-4.8.4-5.6 0-9.2-1.7-9.2-1.7-2.7-1.2-5.2-2.9-7.5-5.7.4.1.9.2 1.5.2 1.8 0 4.5-.8 9.1-3.3 3.7 6.6 9.5 8.2 14.2 8.2 1.3 0 2.6-.1 3.7-.3-2.7 1.1-4.9 1.8-7 2.1z"/><path class="st1" d="M58.7-2386h1.7v6h.9v-6h1.8v-.7h-4.4zm9.1 1.2c-.6 0-1 .1-1.3.7v-2.6h-.8v6.7h.8v-2.8c0-.8.2-1.4 1-1.4.7 0 .8.4.8 1v3.2h.7v-3.3c0-1.1-.4-1.5-1.2-1.5m5.8 0c-1.6 0-1.8 1.1-1.8 2.5 0 2.1.8 2.4 1.8 2.4s1.6-.5 1.6-1.5h-.8c0 .5-.3.9-.8.9-.6 0-1-.3-1-1.6h2.6v-.4c.1-1.6-.2-2.3-1.6-2.3m-.9 2.1c0-1.3.4-1.5.9-1.5.6 0 .9.2.9 1.5zm11.4-4h-2v6.7h.9v-3h1.1c.7 0 1.9-.3 1.9-1.8 0-1.6-1-1.9-1.9-1.9m-.2 3H83v-2.3h1.2c.2 0 1 .1 1 1.1-.1 1.1-.9 1.2-1.3 1.2m5.7-.3v-.7h-.8v4.7h.8v-2.8c0-.6.2-1.3 1.1-1.3h.4v-.8c-.8.1-1.2.2-1.5.9m3.9-2.7h.9v.8h-.9zm.1 2h.8v4.7h-.8zm5.7-.1c-.6 0-1 .2-1.3.7v-.6h-.8v4.7h.8v-2.8c0-.6.1-1.4 1-1.4.7 0 .8.4.8.9v3.3h.8v-3.3c0-.9-.3-1.5-1.3-1.5m5.3 3.6v-2.9h1v-.6h-1v-1.2l-.8.3v.9h-.8v.6h.8v3.3c0 .5.3.8 1.1.8.3 0 .5-.1.8-.1v-.6h-.3c-.8.1-.8-.2-.8-.5m3.5-3.5h.8v4.7h-.8zm-.1-2h.9v.8h-.9zm5.8 1.9c-.6 0-1 .2-1.3.7v-.6h-.8v4.7h.8v-2.8c0-.6.1-1.4 1-1.4.7 0 .8.4.8.9v3.3h.8v-3.3c0-.9-.3-1.5-1.3-1.5m6.7.7c-.2-.5-.6-.7-1.1-.7-.4 0-1.5.1-1.5 2.3 0 1.4.3 2.5 1.5 2.5.4 0 .8-.2 1-.6v1c0 .5-.3.8-.8.8-.4 0-.7-.2-.7-.7h-.9c-.1.9.6 1.3 1.4 1.3 1 0 1.7-.3 1.7-1.3v-5.2h-.8v.6zm0 1.7c0 .7 0 1.7-.9 1.7-.6 0-.9-.4-.9-1.9 0-.6 0-1.7.9-1.7.9.1.9 1.2.9 1.9m8.4-2.7c0-.7.5-1 1-1 .8 0 1 .5 1 1.2h.9c.1-1.4-.6-2-1.9-2-1.1 0-2 .6-2 1.8 0 2 3 1.9 3 3.3 0 .8-.5 1.1-1.2 1.1-.5 0-1.1-.3-1.1-1.2v-.2h-.8c0 .6 0 2.2 2 2.1 1.1 0 2.1-.5 2.1-1.9 0-2-3-1.8-3-3.2m9.2.4h-.8v3.1c0 .8-.5 1.1-.9 1.1-.5 0-.8-.4-.8-1v-3.3h-.8v3.6c0 .8.4 1.2 1.3 1.2.5 0 .9-.2 1.2-.7v.6h.8zm4.8-.1c-.5 0-.8.2-1.1.7v-.6h-.8v6.5h.8v-2.3c.3.4.6.6 1 .6 1.5 0 1.6-1.4 1.6-2.5 0-2.1-.7-2.4-1.5-2.4m-.2 4.3c-.8 0-.9-1-.9-1.6 0-.7-.1-2 .9-2s1 1 1 1.7c-.1 1.2-.2 1.9-1 1.9m6.2-4.3c-1.6 0-1.8 1.1-1.8 2.5 0 2.1.8 2.4 1.8 2.4s1.6-.5 1.6-1.5h-.8c0 .5-.3.9-.8.9-.6 0-1-.3-1-1.6h2.6v-.4c.1-1.6-.2-2.3-1.6-2.3m-.9 2.1c0-1.3.4-1.5.9-1.5.6 0 .9.2.9 1.5zm6.2-1.3v-.7h-.8v4.7h.8v-2.8c0-.6.2-1.3 1.1-1.3h.4v-.8c-.7.1-1.1.2-1.5.9m4.8.4c0-.4.3-.6.7-.6.5 0 .7.3.7.8h.8c.1-.9-.7-1.3-1.5-1.3-1.3 0-1.6.8-1.6 1.3 0 1.4 2.3 1.4 2.3 2.3 0 .5-.4.7-.8.7-.8 0-.8-.6-.8-.9h-.9c0 1.1.6 1.5 1.6 1.5.9 0 1.6-.4 1.6-1.4.2-1.6-2.1-1.6-2.1-2.4m6.2 2.4v-2.9h1v-.6h-1v-1.2l-.8.3v.9h-.8v.6h.8v3.3c0 .5.3.8 1.1.8.3 0 .5-.1.8-.1v-.6h-.3c-.8.1-.8-.2-.8-.5m5.1-3.6c-1.6 0-1.8 1.1-1.8 2.5 0 2.1.8 2.4 1.8 2.4s1.8-.3 1.8-2.4c0-1.4-.2-2.5-1.8-2.5m0 4.3c-.8 0-1-.5-1-2.1 0-1.3.4-1.6 1-1.6s1 .3 1 1.6c0 1.5-.2 2.1-1 2.1m5.4-3.5v-.7h-.8v4.7h.8v-2.8c0-.6.2-1.3 1.1-1.3h.4v-.8c-.8.1-1.2.2-1.5.9m5.7-.8c-1.6 0-1.8 1.1-1.8 2.5 0 2.1.8 2.4 1.8 2.4s1.6-.5 1.6-1.5h-.8c0 .5-.3.9-.8.9-.6 0-1-.3-1-1.6h2.6v-.4c0-1.6-.3-2.3-1.6-2.3m-1 2.1c0-1.3.4-1.5.9-1.5.6 0 .9.2.9 1.5z"/><path class="st2" d="M76.6-2427.2c1.6-2.4 4.1-3.5 5.6-2.5s1.5 3.7-.1 6.1-4.1 3.5-5.6 2.5-1.5-3.7.1-6.1"/><path class="st2" d="M76.4-2421c-.8-.5-1.2-1.5-1.2-2.6 0-1.2.4-2.5 1.2-3.7 1.2-1.8 2.9-2.9 4.4-2.9.5 0 1 .1 1.4.4.8.5 1.2 1.5 1.2 2.6 0 1.2-.4 2.5-1.2 3.7-1.2 1.8-2.9 2.9-4.4 2.9-.5 0-1-.1-1.4-.4m-.8-2.5c0 1 .3 1.9 1 2.3q.45.3 1.2.3c1.3 0 3-1 4.1-2.8.8-1.2 1.2-2.5 1.2-3.5s-.4-1.9-1-2.3q-.45-.3-1.2-.3c-1.3 0-3 1-4.1 2.8-.8 1.1-1.2 2.4-1.2 3.5m52.4 1.8c-1-.5-2.4-.7-4-.7-1.8 0-3.1.2-4.1.7s-1.6 1.5-1.6 2.6v16.7c0 1.3.7 2.3 1.8 2.9s2.6.8 4.4.8c1.4 0 2.6-.1 3.5-.6v5.4c0 .5-.1.6-.4.8q-.45.3-1.8.3c-1.1 0-1.7-.1-2-.3-.2-.1-.3-.2-.3-.7v-3.5h-4.8v3.9c0 1.2.7 2.2 1.9 2.6 1.2.5 2.8.7 5.1.7 2.4 0 4.1-.2 5.3-.8s1.9-1.7 1.8-3v-28.4H128zm-.5 20c-.3.3-1 .5-1.9.5-1 0-1.6-.2-2-.4-.3-.2-.4-.4-.4-.8v-16.5c0-.3 0-.3.3-.5s1-.3 2-.3c.9 0 1.6.3 2 .6s.6.7.5.8v15.4c0 .6-.2.9-.5 1.2m7.5-37.6v41h4.8v-41.7H135zm19.4 17.7c-1.3-.5-3-.8-5.1-.8s-3.8.2-5.1.8c-1.3.5-2.2 1.5-2.2 2.8v17c0 1.3.9 2.2 2.2 2.7q1.95.9 5.1.9t5.1-.9c1.3-.5 2.2-1.5 2.2-2.7v-17c0-1.3-.9-2.3-2.2-2.8m-7.5 2.9c0-.2 0-.3.4-.5.3-.2 1-.4 2.1-.3 1.1 0 1.8.2 2.1.3.3.2.3.2.3.5v17c0 .2 0 .3-.3.5s-1 .4-2.1.4c-1 0-1.7-.2-2.1-.4s-.4-.3-.4-.5zm24.8-2.9c-1-.5-2.4-.7-4.1-.7-1.6 0-3 .2-4 .7v-10.4h-4.8v33.7h4.8v-.4c.2.1.5.2.7.3.7.2 1.6.3 3.1.3 1.7 0 3.2-.3 4.2-.8 1-.6 1.7-1.5 1.7-2.7v-17.4c.1-1.1-.6-2.1-1.6-2.6m-8 20.1c-.1-.1-.1-.1-.1-.2v-16.5c0-.1.1-.5.5-.8s1.1-.6 2-.6c1 0 1.7.1 2 .3s.3.2.3.5v17.1c0 .3-.1.4-.3.6-.3.2-.9.3-1.7.3-.7 0-1.5-.1-2.1-.3-.2-.2-.5-.3-.6-.4m26.1-7.7v-9.7c0-1.1-.8-2.1-2-2.6s-2.9-.8-5.2-.8c-2.2 0-3.9.3-5.1.8s-2 1.4-2 2.6v17.5c0 1.1.8 2 2 2.5s2.9.8 5.1.8c2.3 0 4-.3 5.2-.8s2-1.4 2-2.5v-5.7H185v5.5c0 .3 0 .3-.3.5s-.9.3-2.1.3c-1.1 0-1.7-.2-2-.3-.2-.2-.3-.2-.3-.5v-7.5h9.5zm-7.2-10.4c1 0 1.7.2 2 .3.3.2.3.3.3.5v6.8h-4.6v-6.8c0-.2 0-.3.3-.5.4-.1 1-.3 2-.3m-103.8 2.2c5-4.3 6-6.9 6.3-8.9.6 4 .6 7.6 0 10.9 0 0-.9 6.9-5.2 13.6-1.2 2-2.8 3.8-4.9 5.8 2.5-3.4 5-9.5 3.8-21.4"/><path class="st2" d="M75-2396.1c2-2.8 4-7.4 4-15.5 0-1.8-.1-3.7-.3-5.8h.2l.1.1-.1-.1h-.2v-.1l.1-.1c5-4.3 6-6.8 6.3-8.8h.3c.3 2 .4 3.9.4 5.7s-.1 3.6-.4 5.2c0 .1-.9 7-5.2 13.7-1.2 2-2.8 3.8-4.9 5.9zm4.3-15.5c0 7-1.5 11.5-3.2 14.4 1.6-1.6 2.8-3.1 3.8-4.7 4.1-6.4 5.1-13.1 5.2-13.5.3-1.7.4-3.4.4-5.2 0-1.5-.1-3-.3-4.7-.5 1.9-1.9 4.3-6.1 8 .1 2.1.2 4 .2 5.7"/><path class="st1" d="M61.4-2401.6v-17.4c0-1.1-.6-2.1-1.6-2.6s-2.4-.7-4.1-.7c-1.6 0-3 .2-4 .7v-.5h-4.8v39.1h4.8v-15.7c.9.4 2.2.6 3.8.6 1.7 0 3.2-.3 4.2-.8 1-.6 1.7-1.6 1.7-2.7m-9.6.1c-.1-.1-.1-.1-.1-.2v-16.5c0-.1.1-.5.5-.8s1.1-.6 2-.6c1 0 1.7.1 2 .3s.3.2.3.5v17.1c0 .3-.1.4-.3.6-.3.2-.9.3-1.7.3-.7 0-1.5-.1-2.1-.3-.3-.2-.5-.3-.6-.4m21.6-18.1v-2.7h-.7c-1.8 0-3.3.4-4.3.9v-.7h-4.8v23.9h4.8v-19.5c0-.5.2-.9.9-1.2s1.9-.5 3.3-.5h.8zm27.2-2.1c-1-.5-2.4-.6-4-.6s-3 .4-4 .9v-.7h-4.8v23.9h4.8v-19.5c0-.5.3-.9.8-1.3.5-.3 1.3-.5 1.9-.5q1.5 0 1.8.3c.2.2.3.3.4.9v20.1h4.8v-20.7c0-1.3-.7-2.3-1.7-2.8m11.3-5.6-4.8 1.3v3.8h-3v2.7h3v18.4c0 1.1.7 2 1.7 2.4s2.2.5 3.8.5h3.6v-2.7h-2.9c-.6 0-1-.1-1.1-.2-.2-.1-.2-.1-.2-.4v-18h4.2v-2.7H112zm81 2.7c1.1 0 2.1.9 2.1 2.1s-1 2.1-2.1 2.1-2.1-.9-2.1-2.1 1-2.1 2.1-2.1m0 3.9c1 0 1.7-.8 1.7-1.8s-.7-1.8-1.7-1.8-1.7.8-1.7 1.8.7 1.8 1.7 1.8m-.8-3h.9c.6 0 .9.2.9.7 0 .4-.3.6-.6.7l.7 1.1h-.4l-.7-1.1h-.4v1.1h-.4zm.4 1h.4c.3 0 .6 0 .6-.4 0-.3-.3-.4-.5-.4h-.5zm-4.8 35.8c1.1 0 2.1.9 2.1 2.1s-1 2.1-2.1 2.1-2.1-.9-2.1-2.1c-.1-1.2.9-2.1 2.1-2.1m0 3.9c1 0 1.7-.8 1.7-1.8s-.7-1.8-1.7-1.8-1.7.8-1.7 1.8c-.1 1 .7 1.8 1.7 1.8m-.9-3h.9c.6 0 .9.2.9.7 0 .4-.3.6-.6.7l.7 1.1h-.4l-.7-1.1h-.4v1.1h-.4zm.4 1.1h.4c.3 0 .6 0 .6-.4 0-.3-.3-.4-.5-.4h-.5z"/><path class="st0" d="M8.7-2423.1c.3-.3.6-.5.7-.6l.2-.2-.1-.1.1.1c2.4-2.1 4.9-4 7.8-5.6l-.1-.3c-9.9 1.2-17.7 9.4-18.4 19.5l.3.1c2.3-4.6 4.9-8 6.9-10.2 1.1-1.3 2-2.1 2.6-2.7m30.8 6.7-.2.1-.2-.1c-.2.8-.5 1.5-.9 2.2-.3.6-2.6 5.3-8.5 8.8-1.5 1-3.3 1.8-5.7 2.5 3.2-2 7.5-5.9 7.5-12.2 0-1-.1-2.1-.3-3.2 2.9-.6 4.8-1.3 6.2-1.9l.2-.1-.1-.2c-3.1-4.8-8.1-8.3-14-9.4h-.1l-.1.1c-1.3 2.1-2.9 5.6-2.9 10.7 0 2 .2 4.2.8 6.7h-.5c-10.6 0-17 4.1-20.8 9.2l-.1.1v.1c2.7 8.5 10.6 14.7 20 14.7 11.6 0 21-9.4 21-21 .1-2.3-.4-4.8-1.3-7.1m-13.2 21.2v-.2c-1.7.3-3.3.4-4.8.4-5.6 0-9.2-1.7-9.2-1.7-2.7-1.2-5.2-2.9-7.5-5.7.4.1.9.2 1.5.2 1.8 0 4.5-.8 9.1-3.3 3.7 6.6 9.5 8.2 14.2 8.2 1.3 0 2.6-.1 3.7-.3-2.7 1.1-4.9 1.8-7 2.1z"/><path class="st1" d="M58.7-2386h1.7v6h.9v-6h1.8v-.7h-4.4zm9.1 1.2c-.6 0-1 .1-1.3.7v-2.6h-.8v6.7h.8v-2.8c0-.8.2-1.4 1-1.4.7 0 .8.4.8 1v3.2h.7v-3.3c0-1.1-.4-1.5-1.2-1.5m5.8 0c-1.6 0-1.8 1.1-1.8 2.5 0 2.1.8 2.4 1.8 2.4s1.6-.5 1.6-1.5h-.8c0 .5-.3.9-.8.9-.6 0-1-.3-1-1.6h2.6v-.4c.1-1.6-.2-2.3-1.6-2.3m-.9 2.1c0-1.3.4-1.5.9-1.5.6 0 .9.2.9 1.5zm11.4-4h-2v6.7h.9v-3h1.1c.7 0 1.9-.3 1.9-1.8 0-1.6-1-1.9-1.9-1.9m-.2 3H83v-2.3h1.2c.2 0 1 .1 1 1.1-.1 1.1-.9 1.2-1.3 1.2m5.7-.3v-.7h-.8v4.7h.8v-2.8c0-.6.2-1.3 1.1-1.3h.4v-.8c-.8.1-1.2.2-1.5.9m3.9-2.7h.9v.8h-.9zm.1 2h.8v4.7h-.8zm5.7-.1c-.6 0-1 .2-1.3.7v-.6h-.8v4.7h.8v-2.8c0-.6.1-1.4 1-1.4.7 0 .8.4.8.9v3.3h.8v-3.3c0-.9-.3-1.5-1.3-1.5m5.3 3.6v-2.9h1v-.6h-1v-1.2l-.8.3v.9h-.8v.6h.8v3.3c0 .5.3.8 1.1.8.3 0 .5-.1.8-.1v-.6h-.3c-.8.1-.8-.2-.8-.5m3.5-3.5h.8v4.7h-.8zm-.1-2h.9v.8h-.9zm5.8 1.9c-.6 0-1 .2-1.3.7v-.6h-.8v4.7h.8v-2.8c0-.6.1-1.4 1-1.4.7 0 .8.4.8.9v3.3h.8v-3.3c0-.9-.3-1.5-1.3-1.5m6.7.7c-.2-.5-.6-.7-1.1-.7-.4 0-1.5.1-1.5 2.3 0 1.4.3 2.5 1.5 2.5.4 0 .8-.2 1-.6v1c0 .5-.3.8-.8.8-.4 0-.7-.2-.7-.7h-.9c-.1.9.6 1.3 1.4 1.3 1 0 1.7-.3 1.7-1.3v-5.2h-.8v.6zm0 1.7c0 .7 0 1.7-.9 1.7-.6 0-.9-.4-.9-1.9 0-.6 0-1.7.9-1.7.9.1.9 1.2.9 1.9m8.4-2.7c0-.7.5-1 1-1 .8 0 1 .5 1 1.2h.9c.1-1.4-.6-2-1.9-2-1.1 0-2 .6-2 1.8 0 2 3 1.9 3 3.3 0 .8-.5 1.1-1.2 1.1-.5 0-1.1-.3-1.1-1.2v-.2h-.8c0 .6 0 2.2 2 2.1 1.1 0 2.1-.5 2.1-1.9 0-2-3-1.8-3-3.2m9.2.4h-.8v3.1c0 .8-.5 1.1-.9 1.1-.5 0-.8-.4-.8-1v-3.3h-.8v3.6c0 .8.4 1.2 1.3 1.2.5 0 .9-.2 1.2-.7v.6h.8zm4.8-.1c-.5 0-.8.2-1.1.7v-.6h-.8v6.5h.8v-2.3c.3.4.6.6 1 .6 1.5 0 1.6-1.4 1.6-2.5 0-2.1-.7-2.4-1.5-2.4m-.2 4.3c-.8 0-.9-1-.9-1.6 0-.7-.1-2 .9-2s1 1 1 1.7c-.1 1.2-.2 1.9-1 1.9m6.2-4.3c-1.6 0-1.8 1.1-1.8 2.5 0 2.1.8 2.4 1.8 2.4s1.6-.5 1.6-1.5h-.8c0 .5-.3.9-.8.9-.6 0-1-.3-1-1.6h2.6v-.4c.1-1.6-.2-2.3-1.6-2.3m-.9 2.1c0-1.3.4-1.5.9-1.5.6 0 .9.2.9 1.5zm6.2-1.3v-.7h-.8v4.7h.8v-2.8c0-.6.2-1.3 1.1-1.3h.4v-.8c-.7.1-1.1.2-1.5.9m4.8.4c0-.4.3-.6.7-.6.5 0 .7.3.7.8h.8c.1-.9-.7-1.3-1.5-1.3-1.3 0-1.6.8-1.6 1.3 0 1.4 2.3 1.4 2.3 2.3 0 .5-.4.7-.8.7-.8 0-.8-.6-.8-.9h-.9c0 1.1.6 1.5 1.6 1.5.9 0 1.6-.4 1.6-1.4.2-1.6-2.1-1.6-2.1-2.4m6.2 2.4v-2.9h1v-.6h-1v-1.2l-.8.3v.9h-.8v.6h.8v3.3c0 .5.3.8 1.1.8.3 0 .5-.1.8-.1v-.6h-.3c-.8.1-.8-.2-.8-.5m5.1-3.6c-1.6 0-1.8 1.1-1.8 2.5 0 2.1.8 2.4 1.8 2.4s1.8-.3 1.8-2.4c0-1.4-.2-2.5-1.8-2.5m0 4.3c-.8 0-1-.5-1-2.1 0-1.3.4-1.6 1-1.6s1 .3 1 1.6c0 1.5-.2 2.1-1 2.1m5.4-3.5v-.7h-.8v4.7h.8v-2.8c0-.6.2-1.3 1.1-1.3h.4v-.8c-.8.1-1.2.2-1.5.9m5.7-.8c-1.6 0-1.8 1.1-1.8 2.5 0 2.1.8 2.4 1.8 2.4s1.6-.5 1.6-1.5h-.8c0 .5-.3.9-.8.9-.6 0-1-.3-1-1.6h2.6v-.4c0-1.6-.3-2.3-1.6-2.3m-1 2.1c0-1.3.4-1.5.9-1.5.6 0 .9.2.9 1.5z"/><path class="st2" d="M76.6-2427.2c1.6-2.4 4.1-3.5 5.6-2.5s1.5 3.7-.1 6.1-4.1 3.5-5.6 2.5-1.5-3.7.1-6.1"/><path class="st2" d="M76.4-2421c-.8-.5-1.2-1.5-1.2-2.6 0-1.2.4-2.5 1.2-3.7 1.2-1.8 2.9-2.9 4.4-2.9.5 0 1 .1 1.4.4.8.5 1.2 1.5 1.2 2.6 0 1.2-.4 2.5-1.2 3.7-1.2 1.8-2.9 2.9-4.4 2.9-.5 0-1-.1-1.4-.4m-.8-2.5c0 1 .3 1.9 1 2.3q.45.3 1.2.3c1.3 0 3-1 4.1-2.8.8-1.2 1.2-2.5 1.2-3.5s-.4-1.9-1-2.3q-.45-.3-1.2-.3c-1.3 0-3 1-4.1 2.8-.8 1.1-1.2 2.4-1.2 3.5m52.4 1.8c-1-.5-2.4-.7-4-.7-1.8 0-3.1.2-4.1.7s-1.6 1.5-1.6 2.6v16.7c0 1.3.7 2.3 1.8 2.9s2.6.8 4.4.8c1.4 0 2.6-.1 3.5-.6v5.4c0 .5-.1.6-.4.8q-.45.3-1.8.3c-1.1 0-1.7-.1-2-.3-.2-.1-.3-.2-.3-.7v-3.5h-4.8v3.9c0 1.2.7 2.2 1.9 2.6 1.2.5 2.8.7 5.1.7 2.4 0 4.1-.2 5.3-.8s1.9-1.7 1.8-3v-28.4H128zm-.5 20c-.3.3-1 .5-1.9.5-1 0-1.6-.2-2-.4-.3-.2-.4-.4-.4-.8v-16.5c0-.3 0-.3.3-.5s1-.3 2-.3c.9 0 1.6.3 2 .6s.6.7.5.8v15.4c0 .6-.2.9-.5 1.2m7.5-37.6v41h4.8v-41.7H135zm19.4 17.7c-1.3-.5-3-.8-5.1-.8s-3.8.2-5.1.8c-1.3.5-2.2 1.5-2.2 2.8v17c0 1.3.9 2.2 2.2 2.7q1.95.9 5.1.9t5.1-.9c1.3-.5 2.2-1.5 2.2-2.7v-17c0-1.3-.9-2.3-2.2-2.8m-7.5 2.9c0-.2 0-.3.4-.5.3-.2 1-.4 2.1-.3 1.1 0 1.8.2 2.1.3.3.2.3.2.3.5v17c0 .2 0 .3-.3.5s-1 .4-2.1.4c-1 0-1.7-.2-2.1-.4s-.4-.3-.4-.5zm24.8-2.9c-1-.5-2.4-.7-4.1-.7-1.6 0-3 .2-4 .7v-10.4h-4.8v33.7h4.8v-.4c.2.1.5.2.7.3.7.2 1.6.3 3.1.3 1.7 0 3.2-.3 4.2-.8 1-.6 1.7-1.5 1.7-2.7v-17.4c.1-1.1-.6-2.1-1.6-2.6m-8 20.1c-.1-.1-.1-.1-.1-.2v-16.5c0-.1.1-.5.5-.8s1.1-.6 2-.6c1 0 1.7.1 2 .3s.3.2.3.5v17.1c0 .3-.1.4-.3.6-.3.2-.9.3-1.7.3-.7 0-1.5-.1-2.1-.3-.2-.2-.5-.3-.6-.4m26.1-7.7v-9.7c0-1.1-.8-2.1-2-2.6s-2.9-.8-5.2-.8c-2.2 0-3.9.3-5.1.8s-2 1.4-2 2.6v17.5c0 1.1.8 2 2 2.5s2.9.8 5.1.8c2.3 0 4-.3 5.2-.8s2-1.4 2-2.5v-5.7H185v5.5c0 .3 0 .3-.3.5s-.9.3-2.1.3c-1.1 0-1.7-.2-2-.3-.2-.2-.3-.2-.3-.5v-7.5h9.5zm-7.2-10.4c1 0 1.7.2 2 .3.3.2.3.3.3.5v6.8h-4.6v-6.8c0-.2 0-.3.3-.5.4-.1 1-.3 2-.3m-103.8 2.2c5-4.3 6-6.9 6.3-8.9.6 4 .6 7.6 0 10.9 0 0-.9 6.9-5.2 13.6-1.2 2-2.8 3.8-4.9 5.8 2.5-3.4 5-9.5 3.8-21.4"/><path class="st2" d="M75-2396.1c2-2.8 4-7.4 4-15.5 0-1.8-.1-3.7-.3-5.8h.2l.1.1-.1-.1h-.2v-.1l.1-.1c5-4.3 6-6.8 6.3-8.8h.3c.3 2 .4 3.9.4 5.7s-.1 3.6-.4 5.2c0 .1-.9 7-5.2 13.7-1.2 2-2.8 3.8-4.9 5.9zm4.3-15.5c0 7-1.5 11.5-3.2 14.4 1.6-1.6 2.8-3.1 3.8-4.7 4.1-6.4 5.1-13.1 5.2-13.5.3-1.7.4-3.4.4-5.2 0-1.5-.1-3-.3-4.7-.5 1.9-1.9 4.3-6.1 8 .1 2.1.2 4 .2 5.7"/><path class="st1" d="M61.4-2401.6v-17.4c0-1.1-.6-2.1-1.6-2.6s-2.4-.7-4.1-.7c-1.6 0-3 .2-4 .7v-.5h-4.8v39.1h4.8v-15.7c.9.4 2.2.6 3.8.6 1.7 0 3.2-.3 4.2-.8 1-.6 1.7-1.6 1.7-2.7m-9.6.1c-.1-.1-.1-.1-.1-.2v-16.5c0-.1.1-.5.5-.8s1.1-.6 2-.6c1 0 1.7.1 2 .3s.3.2.3.5v17.1c0 .3-.1.4-.3.6-.3.2-.9.3-1.7.3-.7 0-1.5-.1-2.1-.3-.3-.2-.5-.3-.6-.4m21.6-18.1v-2.7h-.7c-1.8 0-3.3.4-4.3.9v-.7h-4.8v23.9h4.8v-19.5c0-.5.2-.9.9-1.2s1.9-.5 3.3-.5h.8zm27.2-2.1c-1-.5-2.4-.6-4-.6s-3 .4-4 .9v-.7h-4.8v23.9h4.8v-19.5c0-.5.3-.9.8-1.3.5-.3 1.3-.5 1.9-.5q1.5 0 1.8.3c.2.2.3.3.4.9v20.1h4.8v-20.7c0-1.3-.7-2.3-1.7-2.8m11.3-5.6-4.8 1.3v3.8h-3v2.7h3v18.4c0 1.1.7 2 1.7 2.4s2.2.5 3.8.5h3.6v-2.7h-2.9c-.6 0-1-.1-1.1-.2-.2-.1-.2-.1-.2-.4v-18h4.2v-2.7H112zm81 2.7c1.1 0 2.1.9 2.1 2.1s-1 2.1-2.1 2.1-2.1-.9-2.1-2.1 1-2.1 2.1-2.1m0 3.9c1 0 1.7-.8 1.7-1.8s-.7-1.8-1.7-1.8-1.7.8-1.7 1.8.7 1.8 1.7 1.8m-.8-3h.9c.6 0 .9.2.9.7 0 .4-.3.6-.6.7l.7 1.1h-.4l-.7-1.1h-.4v1.1h-.4zm.4 1h.4c.3 0 .6 0 .6-.4 0-.3-.3-.4-.5-.4h-.5zm-4.8 35.8c1.1 0 2.1.9 2.1 2.1s-1 2.1-2.1 2.1-2.1-.9-2.1-2.1c-.1-1.2.9-2.1 2.1-2.1m0 3.9c1 0 1.7-.8 1.7-1.8s-.7-1.8-1.7-1.8-1.7.8-1.7 1.8c-.1 1 .7 1.8 1.7 1.8m-.9-3h.9c.6 0 .9.2.9.7 0 .4-.3.6-.6.7l.7 1.1h-.4l-.7-1.1h-.4v1.1h-.4zm.4 1.1h.4c.3 0 .6 0 .6-.4 0-.3-.3-.4-.5-.4h-.5z"/><path class="st0" d="M9.7 16.9c.3-.3.6-.5.7-.6l.2-.2-.1-.1.1.1c2.4-2.1 4.9-4 7.8-5.6l-.1-.3C8.4 11.4.6 19.5 0 29.6l.3.1c2.3-4.6 4.9-8 6.9-10.2 1-1.2 1.9-2 2.5-2.6m30.8 6.7-.2.1-.2-.1c-.2.8-.5 1.5-.9 2.2-.3.6-2.6 5.3-8.5 8.8-1.5 1-3.3 1.8-5.7 2.5 3.2-2 7.5-5.9 7.5-12.2 0-1-.1-2.1-.3-3.2 2.9-.6 4.8-1.3 6.2-1.9l.2-.1-.1-.2c-3.1-4.8-8.1-8.3-14-9.4h-.1l-.1.1c-1.3 2.1-2.9 5.6-2.9 10.7 0 2 .2 4.2.8 6.7h-.5c-10.6 0-17 4.1-20.8 9.2l-.1.1v.1c2.7 8.5 10.6 14.7 20 14.7 11.6 0 21-9.4 21-21 .1-2.3-.4-4.8-1.3-7.1M27.3 44.8v-.2c-1.7.3-3.3.4-4.8.4-5.6 0-9.2-1.7-9.2-1.7-2.7-1.2-5.2-2.9-7.5-5.7.4.1.9.2 1.5.2 1.8 0 4.5-.8 9.1-3.3 3.7 6.6 9.5 8.3 14.2 8.2 1.3 0 2.6-.1 3.7-.3-2.7 1.1-4.9 1.8-7 2.1z"/><path class="st1" d="M59.7 54h1.7v6h.9v-6h1.8v-.7h-4.4zm9.1 1.2c-.6 0-1 .1-1.3.7v-2.6h-.8V60h.8v-2.8c0-.8.2-1.4 1-1.4.7 0 .8.4.8 1V60h.7v-3.3c0-1.1-.4-1.5-1.2-1.5m5.8 0c-1.6 0-1.8 1.1-1.8 2.5 0 2.1.8 2.4 1.8 2.4s1.6-.5 1.6-1.5h-.8c0 .5-.3.9-.8.9-.6 0-1-.3-1-1.6h2.6v-.4c.1-1.6-.2-2.3-1.6-2.3m-.9 2.1c0-1.3.4-1.5.9-1.5.6 0 .9.2.9 1.5zm11.4-4h-2V60h.9v-3h1.1c.7 0 1.9-.3 1.9-1.8 0-1.6-1-1.9-1.9-1.9m-.2 3H84V54h1.2c.2 0 1 .1 1 1.1-.1 1.1-.9 1.2-1.3 1.2m5.7-.3v-.7h-.8V60h.8v-2.8c0-.6.2-1.3 1.1-1.3h.4v-.8c-.8.1-1.2.2-1.5.9m3.9-2.7h.9v.8h-.9zm.1 2h.8V60h-.8zm5.7-.1c-.6 0-1 .2-1.3.7v-.6h-.8V60h.8v-2.8c0-.6.1-1.4 1-1.4.7 0 .8.4.8.9V60h.8v-3.3c0-.9-.3-1.5-1.3-1.5m5.3 3.6v-2.9h1v-.6h-1V54l-.8.3v.9h-.8v.6h.8v3.3c0 .5.3.8 1.1.8.3 0 .5-.1.8-.1v-.6h-.3c-.8.2-.8-.1-.8-.4m3.5-3.5h.8V60h-.8zm-.1-2h.9v.8h-.9zm5.8 1.9c-.6 0-1 .2-1.3.7v-.6h-.8V60h.8v-2.8c0-.6.1-1.4 1-1.4.7 0 .8.4.8.9V60h.8v-3.3c0-.9-.3-1.5-1.3-1.5m6.7.7c-.2-.5-.6-.7-1.1-.7-.4 0-1.5.1-1.5 2.3 0 1.4.3 2.5 1.5 2.5.4 0 .8-.2 1-.6v1c0 .5-.3.8-.8.8-.4 0-.7-.2-.7-.7h-.9c-.1.9.6 1.3 1.4 1.3 1 0 1.7-.3 1.7-1.3v-5.2h-.8v.6zm0 1.7c0 .7 0 1.7-.9 1.7-.6 0-.9-.4-.9-1.9 0-.6 0-1.7.9-1.7.9.1.9 1.2.9 1.9m8.4-2.7c0-.7.5-1 1-1 .8 0 1 .5 1 1.2h.9c.1-1.4-.6-2-1.9-2-1.1 0-2 .6-2 1.8 0 2 3 1.9 3 3.3 0 .8-.5 1.1-1.2 1.1-.5 0-1.1-.3-1.1-1.2V58h-.8c0 .6 0 2.2 2 2.1 1.1 0 2.1-.5 2.1-1.9 0-2.1-3-1.9-3-3.3m9.2.4h-.8v3.1c0 .8-.5 1.1-.9 1.1-.5 0-.8-.4-.8-1v-3.3h-.8v3.6c0 .8.4 1.2 1.3 1.2.5 0 .9-.2 1.2-.7v.7h.8zm4.8-.1c-.5 0-.8.2-1.1.7v-.6h-.8v6.5h.8v-2.3c.3.4.6.6 1 .6 1.5 0 1.6-1.4 1.6-2.5 0-2.1-.7-2.4-1.5-2.4m-.2 4.3c-.8 0-.9-1-.9-1.6 0-.7-.1-2 .9-2s1 1 1 1.7c-.1 1.2-.2 1.9-1 1.9m6.2-4.3c-1.6 0-1.8 1.1-1.8 2.5 0 2.1.8 2.4 1.8 2.4s1.6-.5 1.6-1.5h-.8c0 .5-.3.9-.8.9-.6 0-1-.3-1-1.6h2.6v-.4c.1-1.6-.2-2.3-1.6-2.3m-.9 2.1c0-1.3.4-1.5.9-1.5.6 0 .9.2.9 1.5zm6.2-1.3v-.7h-.8V60h.8v-2.8c0-.6.2-1.3 1.1-1.3h.4v-.8c-.7.1-1.1.2-1.5.9m4.8.4c0-.4.3-.6.7-.6.5 0 .7.3.7.8h.8c.1-.9-.7-1.3-1.5-1.3-1.3 0-1.6.8-1.6 1.3 0 1.4 2.3 1.4 2.3 2.3 0 .5-.4.7-.8.7-.8 0-.8-.6-.8-.9h-.9c0 1.1.6 1.5 1.6 1.5.9 0 1.6-.4 1.6-1.4.2-1.6-2.1-1.6-2.1-2.4m6.2 2.4v-2.9h1v-.6h-1V54l-.8.3v.9h-.8v.6h.8v3.3c0 .5.3.8 1.1.8.3 0 .5-.1.8-.1v-.6h-.3c-.8.2-.8-.1-.8-.4m5.1-3.6c-1.6 0-1.8 1.1-1.8 2.5 0 2.1.8 2.4 1.8 2.4s1.8-.3 1.8-2.4c0-1.4-.2-2.5-1.8-2.5m0 4.3c-.8 0-1-.5-1-2.1 0-1.3.4-1.6 1-1.6s1 .3 1 1.6c0 1.5-.2 2.1-1 2.1m5.4-3.5v-.7h-.8V60h.8v-2.8c0-.6.2-1.3 1.1-1.3h.4v-.8c-.8.1-1.2.2-1.5.9m5.7-.8c-1.6 0-1.8 1.1-1.8 2.5 0 2.1.8 2.4 1.8 2.4s1.6-.5 1.6-1.5h-.8c0 .5-.3.9-.8.9-.6 0-1-.3-1-1.6h2.6v-.4c0-1.6-.3-2.3-1.6-2.3m-1 2.1c0-1.3.4-1.5.9-1.5.6 0 .9.2.9 1.5z"/><path class="st2" d="M77.6 12.8c1.6-2.4 4.1-3.5 5.6-2.5s1.5 3.7-.1 6.1-4.1 3.5-5.6 2.5-1.5-3.7.1-6.1"/><path class="st2" d="M77.4 19c-.8-.5-1.2-1.5-1.2-2.6 0-1.2.4-2.5 1.2-3.7 1.2-1.8 2.9-2.9 4.4-2.9.5 0 1 .1 1.4.4.8.5 1.2 1.5 1.2 2.6 0 1.2-.4 2.5-1.2 3.7-1.2 1.8-2.9 2.9-4.4 2.9-.5 0-1-.1-1.4-.4m-.8-2.5c0 1 .3 1.9 1 2.3q.45.3 1.2.3c1.3 0 3-1 4.1-2.8.8-1.2 1.2-2.5 1.2-3.5s-.4-1.9-1-2.3q-.45-.3-1.2-.3c-1.3 0-3 1-4.1 2.8-.8 1.1-1.2 2.4-1.2 3.5m52.4 1.8c-1-.5-2.4-.7-4-.7-1.8 0-3.1.2-4.1.7s-1.6 1.5-1.6 2.6v16.7c0 1.3.7 2.3 1.8 2.9s2.6.8 4.4.8c1.4 0 2.6-.1 3.5-.6v5.4c0 .5-.1.6-.4.8q-.45.3-1.8.3c-1.1 0-1.7-.1-2-.3-.2-.1-.3-.2-.3-.7v-3.5h-4.8v3.9c0 1.2.7 2.2 1.9 2.6 1.2.5 2.8.7 5.1.7 2.4 0 4.1-.2 5.3-.8s1.9-1.7 1.8-3V17.8H129zm-.5 20c-.3.3-1 .5-1.9.5-1 0-1.6-.2-2-.4-.3-.2-.4-.4-.4-.8V21.2c0-.3 0-.3.3-.5s1-.3 2-.3c.9 0 1.6.3 2 .6s.6.7.5.8v15.4c0 .5-.2.8-.5 1.1M136 .7v41h4.8V0H136zm19.4 17.7c-1.3-.5-3-.8-5.1-.8s-3.8.2-5.1.8c-1.3.5-2.2 1.5-2.2 2.8v17c0 1.3.9 2.2 2.2 2.7q1.95.9 5.1.9t5.1-.9c1.3-.5 2.2-1.5 2.2-2.7v-17c0-1.3-.9-2.3-2.2-2.8m-7.5 2.9c0-.2 0-.3.4-.5.3-.2 1-.4 2.1-.3 1.1 0 1.8.2 2.1.3.3.2.3.2.3.5v17c0 .2 0 .3-.3.5s-1 .4-2.1.4c-1 0-1.7-.2-2.1-.4s-.4-.3-.4-.5zm24.8-2.9c-1-.5-2.4-.7-4.1-.7-1.6 0-3 .2-4 .7V8h-4.8v33.7h4.8v-.4c.2.1.5.2.7.3.7.2 1.6.3 3.1.3 1.7 0 3.2-.3 4.2-.8 1-.6 1.7-1.5 1.7-2.7V21c.1-1.1-.6-2.1-1.6-2.6m-8 20.1c-.1-.1-.1-.1-.1-.2V21.8c0-.1.1-.5.5-.8s1.1-.6 2-.6c1 0 1.7.1 2 .3s.3.2.3.5v17.1c0 .3-.1.4-.3.6-.3.2-.9.3-1.7.3-.7 0-1.5-.1-2.1-.3-.2-.2-.5-.3-.6-.4m26.1-7.7V21c0-1.1-.8-2.1-2-2.6s-2.9-.8-5.2-.8c-2.2 0-3.9.3-5.1.8s-2 1.4-2 2.6v17.5c0 1.1.8 2 2 2.5s2.9.8 5.1.8c2.3 0 4-.3 5.2-.8s2-1.4 2-2.5v-5.7H186v5.5c0 .3 0 .3-.3.5s-.9.3-2.1.3c-1.1 0-1.7-.2-2-.3-.2-.2-.3-.2-.3-.5v-7.5zm-7.2-10.4c1 0 1.7.2 2 .3.3.2.3.3.3.5V28h-4.6v-6.8c0-.2 0-.3.3-.5.4-.1 1-.3 2-.3M79.8 22.6c5-4.3 6-6.9 6.3-8.9.6 4 .6 7.6 0 10.9 0 0-.9 6.9-5.2 13.6-1.2 2-2.8 3.8-4.9 5.8 2.5-3.4 5-9.5 3.8-21.4"/><path class="st2" d="M76 43.9c2-2.8 4-7.4 4-15.5 0-1.8-.1-3.7-.3-5.8h.2l.1.1-.1-.1h-.2v-.1l.1-.1c5-4.3 6-6.8 6.3-8.8h.3c.3 2 .4 3.9.4 5.7s-.1 3.6-.4 5.2c0 .1-.9 7-5.2 13.7-1.2 2-2.8 3.8-4.9 5.9zm4.3-15.5c0 7-1.5 11.5-3.2 14.4 1.6-1.6 2.8-3.1 3.8-4.7C85 31.7 86 25 86 24.6c.3-1.7.4-3.4.4-5.2 0-1.5-.1-3-.3-4.7-.5 1.9-1.9 4.3-6.1 8q.3 3.15.3 5.7"/><path class="st1" d="M62.4 38.4V21c0-1.1-.6-2.1-1.6-2.6s-2.4-.7-4.1-.7c-1.6 0-3 .2-4 .7v-.5h-4.8V57h4.8V41.3c.9.4 2.2.6 3.8.6 1.7 0 3.2-.3 4.2-.8 1-.6 1.7-1.6 1.7-2.7m-9.6.1c-.1-.1-.1-.1-.1-.2V21.8c0-.1.1-.5.5-.8s1.1-.6 2-.6c1 0 1.7.1 2 .3s.3.2.3.5v17.1c0 .3-.1.4-.3.6-.3.2-.9.3-1.7.3-.7 0-1.5-.1-2.1-.3-.3-.2-.5-.3-.6-.4m21.6-18.1v-2.7h-.7c-1.8 0-3.3.4-4.3.9v-.7h-4.8v23.9h4.8V22.2c0-.5.2-.9.9-1.2s1.9-.5 3.3-.5h.8zm27.2-2.1c-1-.5-2.4-.6-4-.6s-3 .4-4 .9v-.7h-4.8v23.9h4.8V22.2c0-.5.3-.9.8-1.3.5-.3 1.3-.5 1.9-.5q1.5 0 1.8.3c.2.2.3.3.4.9v20.1h4.8V21c0-1.2-.7-2.2-1.7-2.7m11.3-5.6L108 14v3.8h-3v2.7h3V39c0 1.1.7 2 1.7 2.4s2.2.5 3.8.5h3.6v-2.7h-2.9c-.6 0-1-.1-1.1-.2-.2-.1-.2-.1-.2-.4v-18h4.2v-2.7h-4.2zm81 2.7c1.1 0 2.1.9 2.1 2.1s-1 2.1-2.1 2.1-2.1-.9-2.1-2.1 1-2.1 2.1-2.1m0 3.9c1 0 1.7-.8 1.7-1.8s-.7-1.8-1.7-1.8-1.7.8-1.7 1.8.7 1.8 1.7 1.8m-.8-3h.9c.6 0 .9.2.9.7 0 .4-.3.6-.6.7l.7 1.1h-.4l-.7-1.1h-.4v1.1h-.4zm.4 1h.4c.3 0 .6 0 .6-.4 0-.3-.3-.4-.5-.4h-.5zm-4.8 35.8c1.1 0 2.1.9 2.1 2.1s-1 2.1-2.1 2.1-2.1-.9-2.1-2.1c-.1-1.2.9-2.1 2.1-2.1m0 3.9c1 0 1.7-.8 1.7-1.8s-.7-1.8-1.7-1.8-1.7.8-1.7 1.8c-.1 1 .7 1.8 1.7 1.8m-.9-3h.9c.6 0 .9.2.9.7 0 .4-.3.6-.6.7l.7 1.1h-.4l-.7-1.1h-.4v1.1h-.4zm.4 1.1h.4c.3 0 .6 0 .6-.4 0-.3-.3-.4-.5-.4h-.5z"/></svg>