<?xml version="1.0" encoding="utf-8"?>
<!-- Generator: Adobe Illustrator 19.1.0, SVG Export Plug-In . SVG Version: 6.00 Build 0)  -->
<svg version="1.1" id="Layer_1" xmlns="http://www.w3.org/2000/svg" xmlns:xlink="http://www.w3.org/1999/xlink" x="0px" y="0px"
	 viewBox="0 0 196 61.8" style="enable-background:new 0 0 196 61.8;" xml:space="preserve">
<style type="text/css">
	.st0{fill:#CCCECF;}
	.st1{fill:#888A8C;}
	.st2{fill:#008393;}
</style>
<g>
	<g>
		<g>
			<path class="st0" d="M8.7-2423.1c0.3-0.3,0.6-0.5,0.7-0.6c0.1-0.1,0.1-0.1,0.2-0.2c0,0,0,0,0,0l0,0l-0.1-0.1l0,0l0.1,0.1
				c2.4-2.1,4.9-4,7.8-5.6l-0.1-0.3c-9.9,1.2-17.7,9.4-18.4,19.5l0.3,0.1c2.3-4.6,4.9-8,6.9-10.2C7.2-2421.7,8.1-2422.5,8.7-2423.1z
				"/>
			<path class="st0" d="M39.5-2416.4l-0.2,0.1l-0.2-0.1h0c-0.2,0.8-0.5,1.5-0.9,2.2l0,0v0c0,0,0,0,0,0c-0.3,0.6-2.6,5.3-8.5,8.8
				c-1.5,1-3.3,1.8-5.7,2.5c3.2-2,7.5-5.9,7.5-12.2c0-1-0.1-2.1-0.3-3.2c2.9-0.6,4.8-1.3,6.2-1.9l0.2-0.1l-0.1-0.2
				c-3.1-4.8-8.1-8.3-14-9.4l-0.1,0l-0.1,0.1c-1.3,2.1-2.9,5.6-2.9,10.7c0,2,0.2,4.2,0.8,6.7c-0.2,0-0.4,0-0.5,0
				c-10.6,0-17,4.1-20.8,9.2l-0.1,0.1l0,0.1c2.7,8.5,10.6,14.7,20,14.7c11.6,0,21-9.4,21-21C40.9-2411.6,40.4-2414.1,39.5-2416.4z
				 M26.3-2395.2l0-0.2c-1.7,0.3-3.3,0.4-4.8,0.4c-5.6,0-9.2-1.7-9.2-1.7l0,0c-2.7-1.2-5.2-2.9-7.5-5.7c0.4,0.1,0.9,0.2,1.5,0.2
				c1.8,0,4.5-0.8,9.1-3.3c3.7,6.6,9.5,8.2,14.2,8.2c1.3,0,2.6-0.1,3.7-0.3c-2.7,1.1-4.9,1.8-7,2.1L26.3-2395.2L26.3-2395.2z"/>
		</g>
		<g>
			<polygon class="st1" points="58.7,-2386 60.4,-2386 60.4,-2380 61.3,-2380 61.3,-2386 63.1,-2386 63.1,-2386.7 58.7,-2386.7 			
				"/>
			<path class="st1" d="M67.8-2384.8c-0.6,0-1,0.1-1.3,0.7h0v-2.6h-0.8v6.7h0.8v-2.8c0-0.8,0.2-1.4,1-1.4c0.7,0,0.8,0.4,0.8,1v3.2
				H69v-3.3C69-2384.4,68.6-2384.8,67.8-2384.8z"/>
			<path class="st1" d="M73.6-2384.8c-1.6,0-1.8,1.1-1.8,2.5c0,2.1,0.8,2.4,1.8,2.4c1,0,1.6-0.5,1.6-1.5h-0.8c0,0.5-0.3,0.9-0.8,0.9
				c-0.6,0-1-0.3-1-1.6h2.6v-0.4C75.3-2384.1,75-2384.8,73.6-2384.8z M72.7-2382.7c0-1.3,0.4-1.5,0.9-1.5c0.6,0,0.9,0.2,0.9,1.5
				H72.7z"/>
			<path class="st1" d="M84.1-2386.7h-2v6.7H83v-3h1.1c0.7,0,1.9-0.3,1.9-1.8C86-2386.4,85-2386.7,84.1-2386.7z M83.9-2383.7H83
				v-2.3h1.2c0.2,0,1,0.1,1,1.1C85.1-2383.8,84.3-2383.7,83.9-2383.7z"/>
			<path class="st1" d="M89.6-2384L89.6-2384l0-0.7h-0.8v4.7h0.8v-2.8c0-0.6,0.2-1.3,1.1-1.3c0.1,0,0.1,0,0.2,0c0.1,0,0.1,0,0.2,0
				v-0.8C90.3-2384.8,89.9-2384.7,89.6-2384z"/>
			<rect x="93.5" y="-2386.7" class="st1" width="0.9" height="0.8"/>
			<rect x="93.6" y="-2384.7" class="st1" width="0.8" height="4.7"/>
			<path class="st1" d="M99.3-2384.8c-0.6,0-1,0.2-1.3,0.7h0v-0.6h-0.8c0,0.3,0,0.7,0,1v3.7H98v-2.8c0-0.6,0.1-1.4,1-1.4
				c0.7,0,0.8,0.4,0.8,0.9v3.3h0.8v-3.3C100.6-2384.2,100.3-2384.8,99.3-2384.8z"/>
			<path class="st1" d="M104.6-2381.2v-2.9h1v-0.6h-1v-1.2l-0.8,0.3v0.9H103v0.6h0.8v3.3c0,0.5,0.3,0.8,1.1,0.8
				c0.3,0,0.5-0.1,0.8-0.1v-0.6c-0.2,0-0.3,0-0.3,0C104.6-2380.6,104.6-2380.9,104.6-2381.2z"/>
			<rect x="108.1" y="-2384.7" class="st1" width="0.8" height="4.7"/>
			<rect x="108" y="-2386.7" class="st1" width="0.9" height="0.8"/>
			<path class="st1" d="M113.8-2384.8c-0.6,0-1,0.2-1.3,0.7h0v-0.6h-0.8c0,0.3,0,0.7,0,1v3.7h0.8v-2.8c0-0.6,0.1-1.4,1-1.4
				c0.7,0,0.8,0.4,0.8,0.9v3.3h0.8v-3.3C115.1-2384.2,114.8-2384.8,113.8-2384.8z"/>
			<path class="st1" d="M120.5-2384.1L120.5-2384.1c-0.2-0.5-0.6-0.7-1.1-0.7c-0.4,0-1.5,0.1-1.5,2.3c0,1.4,0.3,2.5,1.5,2.5
				c0.4,0,0.8-0.2,1-0.6h0v1c0,0.5-0.3,0.8-0.8,0.8c-0.4,0-0.7-0.2-0.7-0.7h-0.9c-0.1,0.9,0.6,1.3,1.4,1.3c1,0,1.7-0.3,1.7-1.3v-5.2
				h-0.8V-2384.1z M120.5-2382.4c0,0.7,0,1.7-0.9,1.7c-0.6,0-0.9-0.4-0.9-1.9c0-0.6,0-1.7,0.9-1.7
				C120.5-2384.2,120.5-2383.1,120.5-2382.4z"/>
			<path class="st1" d="M128.9-2385.1c0-0.7,0.5-1,1-1c0.8,0,1,0.5,1,1.2h0.9c0.1-1.4-0.6-2-1.9-2c-1.1,0-2,0.6-2,1.8
				c0,2,3,1.9,3,3.3c0,0.8-0.5,1.1-1.2,1.1c-0.5,0-1.1-0.3-1.1-1.2v-0.2h-0.8c0,0.6,0,2.2,2,2.1c1.1,0,2.1-0.5,2.1-1.9
				C131.9-2383.9,128.9-2383.7,128.9-2385.1z"/>
			<path class="st1" d="M138.1-2384.7h-0.8v3.1c0,0.8-0.5,1.1-0.9,1.1c-0.5,0-0.8-0.4-0.8-1v-3.3h-0.8v3.6c0,0.8,0.4,1.2,1.3,1.2
				c0.5,0,0.9-0.2,1.2-0.7h0v0.6h0.8c0-0.3,0-0.7,0-1V-2384.7z"/>
			<path class="st1" d="M142.9-2384.8c-0.5,0-0.8,0.2-1.1,0.7h0v-0.6H141v6.5h0.8v-2.3h0c0.3,0.4,0.6,0.6,1,0.6
				c1.5,0,1.6-1.4,1.6-2.5C144.4-2384.5,143.7-2384.8,142.9-2384.8z M142.7-2380.5c-0.8,0-0.9-1-0.9-1.6c0-0.7-0.1-2,0.9-2
				c1,0,1,1,1,1.7C143.6-2381.2,143.5-2380.5,142.7-2380.5z"/>
			<path class="st1" d="M148.9-2384.8c-1.6,0-1.8,1.1-1.8,2.5c0,2.1,0.8,2.4,1.8,2.4c1,0,1.6-0.5,1.6-1.5h-0.8
				c0,0.5-0.3,0.9-0.8,0.9c-0.6,0-1-0.3-1-1.6h2.6v-0.4C150.6-2384.1,150.3-2384.8,148.9-2384.8z M148-2382.7c0-1.3,0.4-1.5,0.9-1.5
				c0.6,0,0.9,0.2,0.9,1.5H148z"/>
			<path class="st1" d="M154.2-2384L154.2-2384l0-0.7h-0.8v4.7h0.8v-2.8c0-0.6,0.2-1.3,1.1-1.3c0.1,0,0.1,0,0.2,0c0.1,0,0.1,0,0.2,0
				v-0.8C155-2384.8,154.6-2384.7,154.2-2384z"/>
			<path class="st1" d="M159-2383.6c0-0.4,0.3-0.6,0.7-0.6c0.5,0,0.7,0.3,0.7,0.8h0.8c0.1-0.9-0.7-1.3-1.5-1.3
				c-1.3,0-1.6,0.8-1.6,1.3c0,1.4,2.3,1.4,2.3,2.3c0,0.5-0.4,0.7-0.8,0.7c-0.8,0-0.8-0.6-0.8-0.9h-0.9c0,1.1,0.6,1.5,1.6,1.5
				c0.9,0,1.6-0.4,1.6-1.4C161.3-2382.8,159-2382.8,159-2383.6z"/>
			<path class="st1" d="M165.2-2381.2v-2.9h1v-0.6h-1v-1.2l-0.8,0.3v0.9h-0.8v0.6h0.8v3.3c0,0.5,0.3,0.8,1.1,0.8
				c0.3,0,0.5-0.1,0.8-0.1v-0.6c-0.2,0-0.3,0-0.3,0C165.2-2380.6,165.2-2380.9,165.2-2381.2z"/>
			<path class="st1" d="M170.3-2384.8c-1.6,0-1.8,1.1-1.8,2.5c0,2.1,0.8,2.4,1.8,2.4c1,0,1.8-0.3,1.8-2.4
				C172.1-2383.7,171.9-2384.8,170.3-2384.8z M170.3-2380.5c-0.8,0-1-0.5-1-2.1c0-1.3,0.4-1.6,1-1.6c0.6,0,1,0.3,1,1.6
				C171.3-2381.1,171.1-2380.5,170.3-2380.5z"/>
			<path class="st1" d="M175.7-2384L175.7-2384l0-0.7h-0.8v4.7h0.8v-2.8c0-0.6,0.2-1.3,1.1-1.3c0.1,0,0.1,0,0.2,0c0.1,0,0.1,0,0.2,0
				v-0.8C176.4-2384.8,176-2384.7,175.7-2384z"/>
			<path class="st1" d="M181.4-2384.8c-1.6,0-1.8,1.1-1.8,2.5c0,2.1,0.8,2.4,1.8,2.4c1,0,1.6-0.5,1.6-1.5h-0.8
				c0,0.5-0.3,0.9-0.8,0.9c-0.6,0-1-0.3-1-1.6h2.6v-0.4C183-2384.1,182.7-2384.8,181.4-2384.8z M180.4-2382.7c0-1.3,0.4-1.5,0.9-1.5
				c0.6,0,0.9,0.2,0.9,1.5H180.4z"/>
		</g>
		<g>
			<g>
				<path class="st2" d="M76.6-2427.2c1.6-2.4,4.1-3.5,5.6-2.5c1.5,1,1.5,3.7-0.1,6.1c-1.6,2.4-4.1,3.5-5.6,2.5
					C75-2422.1,75-2424.8,76.6-2427.2z"/>
				<path class="st2" d="M76.4-2421c-0.8-0.5-1.2-1.5-1.2-2.6l0,0c0-1.2,0.4-2.5,1.2-3.7l0,0c1.2-1.8,2.9-2.9,4.4-2.9l0,0
					c0.5,0,1,0.1,1.4,0.4l0,0c0.8,0.5,1.2,1.5,1.2,2.6l0,0c0,1.2-0.4,2.5-1.2,3.7l0,0c-1.2,1.8-2.9,2.9-4.4,2.9l0,0
					C77.3-2420.6,76.8-2420.7,76.4-2421L76.4-2421z M75.6-2423.5c0,1,0.3,1.9,1,2.3l0,0c0.3,0.2,0.7,0.3,1.2,0.3l0,0
					c1.3,0,3-1,4.1-2.8l0,0c0.8-1.2,1.2-2.5,1.2-3.5l0,0c0-1-0.4-1.9-1-2.3l0,0c-0.3-0.2-0.7-0.3-1.2-0.3l0,0c-1.3,0-3,1-4.1,2.8
					l0,0C76-2425.9,75.6-2424.6,75.6-2423.5L75.6-2423.5z"/>
			</g>
			<g>
				<path class="st2" d="M128-2421.7c-1-0.5-2.4-0.7-4-0.7c-1.8,0-3.1,0.2-4.1,0.7c-1,0.5-1.6,1.5-1.6,2.6v16.7
					c0,1.3,0.7,2.3,1.8,2.9c1.1,0.6,2.6,0.8,4.4,0.8c1.4,0,2.6-0.1,3.5-0.6v5.4c0,0.5-0.1,0.6-0.4,0.8c-0.3,0.2-0.9,0.3-1.8,0.3
					c-1.1,0-1.7-0.1-2-0.3c-0.2-0.1-0.3-0.2-0.3-0.7v-3.5h-4.8v0.7v3.2c0,1.2,0.7,2.2,1.9,2.6c1.2,0.5,2.8,0.7,5.1,0.7
					c2.4,0,4.1-0.2,5.3-0.8c1.2-0.6,1.9-1.7,1.8-3v-28.4H128V-2421.7z M127.5-2401.7c-0.3,0.3-1,0.5-1.9,0.5c-1,0-1.6-0.2-2-0.4
					c-0.3-0.2-0.4-0.4-0.4-0.8v-16.5c0-0.3,0-0.3,0.3-0.5c0.3-0.2,1-0.3,2-0.3c0.9,0,1.6,0.3,2,0.6c0.4,0.3,0.6,0.7,0.5,0.8v15.4
					C128-2402.3,127.8-2402,127.5-2401.7z"/>
				<polygon class="st2" points="135,-2439.3 135,-2398.3 139.8,-2398.3 139.8,-2440 135,-2440 				"/>
				<path class="st2" d="M154.4-2421.6c-1.3-0.5-3-0.8-5.1-0.8c-2.1,0-3.8,0.2-5.1,0.8c-1.3,0.5-2.2,1.5-2.2,2.8v17
					c0,1.3,0.9,2.2,2.2,2.7c1.3,0.6,3,0.9,5.1,0.9c2.1,0,3.8-0.3,5.1-0.9c1.3-0.5,2.2-1.5,2.2-2.7v-17
					C156.6-2420.1,155.7-2421.1,154.4-2421.6z M146.9-2418.7c0-0.2,0-0.3,0.4-0.5c0.3-0.2,1-0.4,2.1-0.3c1.1,0,1.8,0.2,2.1,0.3
					c0.3,0.2,0.3,0.2,0.3,0.5v17c0,0.2,0,0.3-0.3,0.5c-0.3,0.2-1,0.4-2.1,0.4c-1,0-1.7-0.2-2.1-0.4c-0.4-0.2-0.4-0.3-0.4-0.5
					V-2418.7z"/>
				<path class="st2" d="M171.7-2421.6c-1-0.5-2.4-0.7-4.1-0.7c-1.6,0-3,0.2-4,0.7v-10.4h-4.8v33.7h0.7h4.1v-0.4
					c0.2,0.1,0.5,0.2,0.7,0.3c0.7,0.2,1.6,0.3,3.1,0.3c1.7,0,3.2-0.3,4.2-0.8c1-0.6,1.7-1.5,1.7-2.7v-17.4
					C173.4-2420.1,172.7-2421.1,171.7-2421.6z M163.7-2401.5c-0.1-0.1-0.1-0.1-0.1-0.2v-16.5c0-0.1,0.1-0.5,0.5-0.8
					c0.4-0.3,1.1-0.6,2-0.6c1,0,1.7,0.1,2,0.3c0.3,0.2,0.3,0.2,0.3,0.5v17.1c0,0.3-0.1,0.4-0.3,0.6c-0.3,0.2-0.9,0.3-1.7,0.3
					c-0.7,0-1.5-0.1-2.1-0.3C164.1-2401.3,163.8-2401.4,163.7-2401.5z"/>
				<path class="st2" d="M189.8-2409.2v-9.7c0-1.1-0.8-2.1-2-2.6c-1.2-0.5-2.9-0.8-5.2-0.8c-2.2,0-3.9,0.3-5.1,0.8
					c-1.2,0.5-2,1.4-2,2.6v17.5c0,1.1,0.8,2,2,2.5c1.2,0.5,2.9,0.8,5.1,0.8c2.3,0,4-0.3,5.2-0.8c1.2-0.5,2-1.4,2-2.5v-5.7H185v0.7
					v4.8c0,0.3,0,0.3-0.3,0.5c-0.3,0.2-0.9,0.3-2.1,0.3c-1.1,0-1.7-0.2-2-0.3c-0.2-0.2-0.3-0.2-0.3-0.5v-7.5H189.8z M182.6-2419.6
					c1,0,1.7,0.2,2,0.3c0.3,0.2,0.3,0.3,0.3,0.5v6.8h-4.6l0-6.8c0-0.2,0-0.3,0.3-0.5C181-2419.4,181.6-2419.6,182.6-2419.6
					C182.6-2419.6,182.6-2419.6,182.6-2419.6z"/>
			</g>
			<g>
				<path class="st2" d="M78.8-2417.4c5-4.3,6-6.9,6.3-8.9l0,0l0,0l0,0c0.6,4,0.6,7.6,0,10.9l0,0l0,0l0,0c0,0-0.9,6.9-5.2,13.6l0,0
					l0,0l0,0c-1.2,2-2.8,3.8-4.9,5.8l0,0l0,0l0,0C77.5-2399.4,80-2405.5,78.8-2417.4z"/>
				<path class="st2" d="M75-2396.1c2-2.8,4-7.4,4-15.5l0,0c0-1.8-0.1-3.7-0.3-5.8l0,0l0.2,0l0.1,0.1l-0.1-0.1l-0.2,0l0-0.1l0.1-0.1
					c5-4.3,6-6.8,6.3-8.8l0,0l0.3,0c0.3,2,0.4,3.9,0.4,5.7l0,0c0,1.8-0.1,3.6-0.4,5.2l0,0c0,0.1-0.9,7-5.2,13.7l0,0
					c-1.2,2-2.8,3.8-4.9,5.9l0,0L75-2396.1L75-2396.1z M79.3-2411.6c0,7-1.5,11.5-3.2,14.4l0,0c1.6-1.6,2.8-3.1,3.8-4.7l0,0
					c4.1-6.4,5.1-13.1,5.2-13.5l0,0l0,0l0,0c0.3-1.7,0.4-3.4,0.4-5.2l0,0c0-1.5-0.1-3-0.3-4.7l0,0c-0.5,1.9-1.9,4.3-6.1,8l0,0
					C79.2-2415.2,79.3-2413.3,79.3-2411.6L79.3-2411.6z"/>
			</g>
			<g>
				<path class="st1" d="M61.4-2401.6v-17.4c0-1.1-0.6-2.1-1.6-2.6c-1-0.5-2.4-0.7-4.1-0.7c-1.6,0-3,0.2-4,0.7v-0.5h-4.8v39.1h0.7
					h4.1v-15.7c0.9,0.4,2.2,0.6,3.8,0.6c1.7,0,3.2-0.3,4.2-0.8C60.7-2399.5,61.4-2400.5,61.4-2401.6z M51.8-2401.5
					c-0.1-0.1-0.1-0.1-0.1-0.2v-16.5c0-0.1,0.1-0.5,0.5-0.8c0.4-0.3,1.1-0.6,2-0.6c1,0,1.7,0.1,2,0.3c0.3,0.2,0.3,0.2,0.3,0.5v17.1
					c0,0.3-0.1,0.4-0.3,0.6c-0.3,0.2-0.9,0.3-1.7,0.3c-0.7,0-1.5-0.1-2.1-0.3C52.1-2401.3,51.9-2401.4,51.8-2401.5z"/>
				<path class="st1" d="M73.4-2419.6v-2.7h-0.7c-1.8,0-3.3,0.4-4.3,0.9v-0.7h-4.8v0.7v23.2h4.8v-19.5c0-0.5,0.2-0.9,0.9-1.2
					c0.7-0.3,1.9-0.5,3.3-0.5H73.4z"/>
				<path class="st1" d="M100.6-2421.7c-1-0.5-2.4-0.6-4-0.6c-1.6,0-3,0.4-4,0.9v-0.7h-4.8v0.7v23.2h4.8v-19.5
					c0-0.5,0.3-0.9,0.8-1.3c0.5-0.3,1.3-0.5,1.9-0.5c1,0,1.6,0.1,1.8,0.3c0.2,0.2,0.3,0.3,0.4,0.9v20.1h4.8v-20.7
					C102.3-2420.2,101.6-2421.2,100.6-2421.7z"/>
				<path class="st1" d="M111.9-2427.3l-4.8,1.3v3.8h-3v0.7v2h3v18.4c0,1.1,0.7,2,1.7,2.4c1,0.4,2.2,0.5,3.8,0.5h3.6v-2.7h-2.9
					c-0.6,0-1-0.1-1.1-0.2c-0.2-0.1-0.2-0.1-0.2-0.4v-18h4.2v-2.7h-4.2L111.9-2427.3z"/>
			</g>
		</g>
	</g>
	<g>
		<path class="st1" d="M192.9-2424.6c1.1,0,2.1,0.9,2.1,2.1c0,1.2-1,2.1-2.1,2.1c-1.1,0-2.1-0.9-2.1-2.1
			C190.8-2423.7,191.8-2424.6,192.9-2424.6z M192.9-2420.7c1,0,1.7-0.8,1.7-1.8c0-1-0.7-1.8-1.7-1.8c-1,0-1.7,0.8-1.7,1.8
			C191.2-2421.5,191.9-2420.7,192.9-2420.7z M192.1-2423.7h0.9c0.6,0,0.9,0.2,0.9,0.7c0,0.4-0.3,0.6-0.6,0.7l0.7,1.1h-0.4l-0.7-1.1
			h-0.4v1.1h-0.4V-2423.7z M192.5-2422.7h0.4c0.3,0,0.6,0,0.6-0.4c0-0.3-0.3-0.4-0.5-0.4h-0.5V-2422.7z"/>
	</g>
	<g>
		<path class="st1" d="M187.7-2386.9c1.1,0,2.1,0.9,2.1,2.1c0,1.2-1,2.1-2.1,2.1c-1.1,0-2.1-0.9-2.1-2.1
			C185.5-2386,186.5-2386.9,187.7-2386.9z M187.7-2383c1,0,1.7-0.8,1.7-1.8c0-1-0.7-1.8-1.7-1.8c-1,0-1.7,0.8-1.7,1.8
			C185.9-2383.8,186.7-2383,187.7-2383z M186.8-2386h0.9c0.6,0,0.9,0.2,0.9,0.7c0,0.4-0.3,0.6-0.6,0.7l0.7,1.1h-0.4l-0.7-1.1h-0.4
			v1.1h-0.4V-2386z M187.2-2384.9h0.4c0.3,0,0.6,0,0.6-0.4c0-0.3-0.3-0.4-0.5-0.4h-0.5V-2384.9z"/>
	</g>
</g>
<g>
	<g>
		<g>
			<path class="st0" d="M8.7-2423.1c0.3-0.3,0.6-0.5,0.7-0.6c0.1-0.1,0.1-0.1,0.2-0.2c0,0,0,0,0,0l0,0l-0.1-0.1l0,0l0.1,0.1
				c2.4-2.1,4.9-4,7.8-5.6l-0.1-0.3c-9.9,1.2-17.7,9.4-18.4,19.5l0.3,0.1c2.3-4.6,4.9-8,6.9-10.2C7.2-2421.7,8.1-2422.5,8.7-2423.1z
				"/>
			<path class="st0" d="M39.5-2416.4l-0.2,0.1l-0.2-0.1h0c-0.2,0.8-0.5,1.5-0.9,2.2l0,0v0c0,0,0,0,0,0c-0.3,0.6-2.6,5.3-8.5,8.8
				c-1.5,1-3.3,1.8-5.7,2.5c3.2-2,7.5-5.9,7.5-12.2c0-1-0.1-2.1-0.3-3.2c2.9-0.6,4.8-1.3,6.2-1.9l0.2-0.1l-0.1-0.2
				c-3.1-4.8-8.1-8.3-14-9.4l-0.1,0l-0.1,0.1c-1.3,2.1-2.9,5.6-2.9,10.7c0,2,0.2,4.2,0.8,6.7c-0.2,0-0.4,0-0.5,0
				c-10.6,0-17,4.1-20.8,9.2l-0.1,0.1l0,0.1c2.7,8.5,10.6,14.7,20,14.7c11.6,0,21-9.4,21-21C40.9-2411.6,40.4-2414.1,39.5-2416.4z
				 M26.3-2395.2l0-0.2c-1.7,0.3-3.3,0.4-4.8,0.4c-5.6,0-9.2-1.7-9.2-1.7l0,0c-2.7-1.2-5.2-2.9-7.5-5.7c0.4,0.1,0.9,0.2,1.5,0.2
				c1.8,0,4.5-0.8,9.1-3.3c3.7,6.6,9.5,8.2,14.2,8.2c1.3,0,2.6-0.1,3.7-0.3c-2.7,1.1-4.9,1.8-7,2.1L26.3-2395.2L26.3-2395.2z"/>
		</g>
		<g>
			<polygon class="st1" points="58.7,-2386 60.4,-2386 60.4,-2380 61.3,-2380 61.3,-2386 63.1,-2386 63.1,-2386.7 58.7,-2386.7 			
				"/>
			<path class="st1" d="M67.8-2384.8c-0.6,0-1,0.1-1.3,0.7h0v-2.6h-0.8v6.7h0.8v-2.8c0-0.8,0.2-1.4,1-1.4c0.7,0,0.8,0.4,0.8,1v3.2
				H69v-3.3C69-2384.4,68.6-2384.8,67.8-2384.8z"/>
			<path class="st1" d="M73.6-2384.8c-1.6,0-1.8,1.1-1.8,2.5c0,2.1,0.8,2.4,1.8,2.4c1,0,1.6-0.5,1.6-1.5h-0.8c0,0.5-0.3,0.9-0.8,0.9
				c-0.6,0-1-0.3-1-1.6h2.6v-0.4C75.3-2384.1,75-2384.8,73.6-2384.8z M72.7-2382.7c0-1.3,0.4-1.5,0.9-1.5c0.6,0,0.9,0.2,0.9,1.5
				H72.7z"/>
			<path class="st1" d="M84.1-2386.7h-2v6.7H83v-3h1.1c0.7,0,1.9-0.3,1.9-1.8C86-2386.4,85-2386.7,84.1-2386.7z M83.9-2383.7H83
				v-2.3h1.2c0.2,0,1,0.1,1,1.1C85.1-2383.8,84.3-2383.7,83.9-2383.7z"/>
			<path class="st1" d="M89.6-2384L89.6-2384l0-0.7h-0.8v4.7h0.8v-2.8c0-0.6,0.2-1.3,1.1-1.3c0.1,0,0.1,0,0.2,0c0.1,0,0.1,0,0.2,0
				v-0.8C90.3-2384.8,89.9-2384.7,89.6-2384z"/>
			<rect x="93.5" y="-2386.7" class="st1" width="0.9" height="0.8"/>
			<rect x="93.6" y="-2384.7" class="st1" width="0.8" height="4.7"/>
			<path class="st1" d="M99.3-2384.8c-0.6,0-1,0.2-1.3,0.7h0v-0.6h-0.8c0,0.3,0,0.7,0,1v3.7H98v-2.8c0-0.6,0.1-1.4,1-1.4
				c0.7,0,0.8,0.4,0.8,0.9v3.3h0.8v-3.3C100.6-2384.2,100.3-2384.8,99.3-2384.8z"/>
			<path class="st1" d="M104.6-2381.2v-2.9h1v-0.6h-1v-1.2l-0.8,0.3v0.9H103v0.6h0.8v3.3c0,0.5,0.3,0.8,1.1,0.8
				c0.3,0,0.5-0.1,0.8-0.1v-0.6c-0.2,0-0.3,0-0.3,0C104.6-2380.6,104.6-2380.9,104.6-2381.2z"/>
			<rect x="108.1" y="-2384.7" class="st1" width="0.8" height="4.7"/>
			<rect x="108" y="-2386.7" class="st1" width="0.9" height="0.8"/>
			<path class="st1" d="M113.8-2384.8c-0.6,0-1,0.2-1.3,0.7h0v-0.6h-0.8c0,0.3,0,0.7,0,1v3.7h0.8v-2.8c0-0.6,0.1-1.4,1-1.4
				c0.7,0,0.8,0.4,0.8,0.9v3.3h0.8v-3.3C115.1-2384.2,114.8-2384.8,113.8-2384.8z"/>
			<path class="st1" d="M120.5-2384.1L120.5-2384.1c-0.2-0.5-0.6-0.7-1.1-0.7c-0.4,0-1.5,0.1-1.5,2.3c0,1.4,0.3,2.5,1.5,2.5
				c0.4,0,0.8-0.2,1-0.6h0v1c0,0.5-0.3,0.8-0.8,0.8c-0.4,0-0.7-0.2-0.7-0.7h-0.9c-0.1,0.9,0.6,1.3,1.4,1.3c1,0,1.7-0.3,1.7-1.3v-5.2
				h-0.8V-2384.1z M120.5-2382.4c0,0.7,0,1.7-0.9,1.7c-0.6,0-0.9-0.4-0.9-1.9c0-0.6,0-1.7,0.9-1.7
				C120.5-2384.2,120.5-2383.1,120.5-2382.4z"/>
			<path class="st1" d="M128.9-2385.1c0-0.7,0.5-1,1-1c0.8,0,1,0.5,1,1.2h0.9c0.1-1.4-0.6-2-1.9-2c-1.1,0-2,0.6-2,1.8
				c0,2,3,1.9,3,3.3c0,0.8-0.5,1.1-1.2,1.1c-0.5,0-1.1-0.3-1.1-1.2v-0.2h-0.8c0,0.6,0,2.2,2,2.1c1.1,0,2.1-0.5,2.1-1.9
				C131.9-2383.9,128.9-2383.7,128.9-2385.1z"/>
			<path class="st1" d="M138.1-2384.7h-0.8v3.1c0,0.8-0.5,1.1-0.9,1.1c-0.5,0-0.8-0.4-0.8-1v-3.3h-0.8v3.6c0,0.8,0.4,1.2,1.3,1.2
				c0.5,0,0.9-0.2,1.2-0.7h0v0.6h0.8c0-0.3,0-0.7,0-1V-2384.7z"/>
			<path class="st1" d="M142.9-2384.8c-0.5,0-0.8,0.2-1.1,0.7h0v-0.6H141v6.5h0.8v-2.3h0c0.3,0.4,0.6,0.6,1,0.6
				c1.5,0,1.6-1.4,1.6-2.5C144.4-2384.5,143.7-2384.8,142.9-2384.8z M142.7-2380.5c-0.8,0-0.9-1-0.9-1.6c0-0.7-0.1-2,0.9-2
				c1,0,1,1,1,1.7C143.6-2381.2,143.5-2380.5,142.7-2380.5z"/>
			<path class="st1" d="M148.9-2384.8c-1.6,0-1.8,1.1-1.8,2.5c0,2.1,0.8,2.4,1.8,2.4c1,0,1.6-0.5,1.6-1.5h-0.8
				c0,0.5-0.3,0.9-0.8,0.9c-0.6,0-1-0.3-1-1.6h2.6v-0.4C150.6-2384.1,150.3-2384.8,148.9-2384.8z M148-2382.7c0-1.3,0.4-1.5,0.9-1.5
				c0.6,0,0.9,0.2,0.9,1.5H148z"/>
			<path class="st1" d="M154.2-2384L154.2-2384l0-0.7h-0.8v4.7h0.8v-2.8c0-0.6,0.2-1.3,1.1-1.3c0.1,0,0.1,0,0.2,0c0.1,0,0.1,0,0.2,0
				v-0.8C155-2384.8,154.6-2384.7,154.2-2384z"/>
			<path class="st1" d="M159-2383.6c0-0.4,0.3-0.6,0.7-0.6c0.5,0,0.7,0.3,0.7,0.8h0.8c0.1-0.9-0.7-1.3-1.5-1.3
				c-1.3,0-1.6,0.8-1.6,1.3c0,1.4,2.3,1.4,2.3,2.3c0,0.5-0.4,0.7-0.8,0.7c-0.8,0-0.8-0.6-0.8-0.9h-0.9c0,1.1,0.6,1.5,1.6,1.5
				c0.9,0,1.6-0.4,1.6-1.4C161.3-2382.8,159-2382.8,159-2383.6z"/>
			<path class="st1" d="M165.2-2381.2v-2.9h1v-0.6h-1v-1.2l-0.8,0.3v0.9h-0.8v0.6h0.8v3.3c0,0.5,0.3,0.8,1.1,0.8
				c0.3,0,0.5-0.1,0.8-0.1v-0.6c-0.2,0-0.3,0-0.3,0C165.2-2380.6,165.2-2380.9,165.2-2381.2z"/>
			<path class="st1" d="M170.3-2384.8c-1.6,0-1.8,1.1-1.8,2.5c0,2.1,0.8,2.4,1.8,2.4c1,0,1.8-0.3,1.8-2.4
				C172.1-2383.7,171.9-2384.8,170.3-2384.8z M170.3-2380.5c-0.8,0-1-0.5-1-2.1c0-1.3,0.4-1.6,1-1.6c0.6,0,1,0.3,1,1.6
				C171.3-2381.1,171.1-2380.5,170.3-2380.5z"/>
			<path class="st1" d="M175.7-2384L175.7-2384l0-0.7h-0.8v4.7h0.8v-2.8c0-0.6,0.2-1.3,1.1-1.3c0.1,0,0.1,0,0.2,0c0.1,0,0.1,0,0.2,0
				v-0.8C176.4-2384.8,176-2384.7,175.7-2384z"/>
			<path class="st1" d="M181.4-2384.8c-1.6,0-1.8,1.1-1.8,2.5c0,2.1,0.8,2.4,1.8,2.4c1,0,1.6-0.5,1.6-1.5h-0.8
				c0,0.5-0.3,0.9-0.8,0.9c-0.6,0-1-0.3-1-1.6h2.6v-0.4C183-2384.1,182.7-2384.8,181.4-2384.8z M180.4-2382.7c0-1.3,0.4-1.5,0.9-1.5
				c0.6,0,0.9,0.2,0.9,1.5H180.4z"/>
		</g>
		<g>
			<g>
				<path class="st2" d="M76.6-2427.2c1.6-2.4,4.1-3.5,5.6-2.5c1.5,1,1.5,3.7-0.1,6.1c-1.6,2.4-4.1,3.5-5.6,2.5
					C75-2422.1,75-2424.8,76.6-2427.2z"/>
				<path class="st2" d="M76.4-2421c-0.8-0.5-1.2-1.5-1.2-2.6l0,0c0-1.2,0.4-2.5,1.2-3.7l0,0c1.2-1.8,2.9-2.9,4.4-2.9l0,0
					c0.5,0,1,0.1,1.4,0.4l0,0c0.8,0.5,1.2,1.5,1.2,2.6l0,0c0,1.2-0.4,2.5-1.2,3.7l0,0c-1.2,1.8-2.9,2.9-4.4,2.9l0,0
					C77.3-2420.6,76.8-2420.7,76.4-2421L76.4-2421z M75.6-2423.5c0,1,0.3,1.9,1,2.3l0,0c0.3,0.2,0.7,0.3,1.2,0.3l0,0
					c1.3,0,3-1,4.1-2.8l0,0c0.8-1.2,1.2-2.5,1.2-3.5l0,0c0-1-0.4-1.9-1-2.3l0,0c-0.3-0.2-0.7-0.3-1.2-0.3l0,0c-1.3,0-3,1-4.1,2.8
					l0,0C76-2425.9,75.6-2424.6,75.6-2423.5L75.6-2423.5z"/>
			</g>
			<g>
				<path class="st2" d="M128-2421.7c-1-0.5-2.4-0.7-4-0.7c-1.8,0-3.1,0.2-4.1,0.7c-1,0.5-1.6,1.5-1.6,2.6v16.7
					c0,1.3,0.7,2.3,1.8,2.9c1.1,0.6,2.6,0.8,4.4,0.8c1.4,0,2.6-0.1,3.5-0.6v5.4c0,0.5-0.1,0.6-0.4,0.8c-0.3,0.2-0.9,0.3-1.8,0.3
					c-1.1,0-1.7-0.1-2-0.3c-0.2-0.1-0.3-0.2-0.3-0.7v-3.5h-4.8v0.7v3.2c0,1.2,0.7,2.2,1.9,2.6c1.2,0.5,2.8,0.7,5.1,0.7
					c2.4,0,4.1-0.2,5.3-0.8c1.2-0.6,1.9-1.7,1.8-3v-28.4H128V-2421.7z M127.5-2401.7c-0.3,0.3-1,0.5-1.9,0.5c-1,0-1.6-0.2-2-0.4
					c-0.3-0.2-0.4-0.4-0.4-0.8v-16.5c0-0.3,0-0.3,0.3-0.5c0.3-0.2,1-0.3,2-0.3c0.9,0,1.6,0.3,2,0.6c0.4,0.3,0.6,0.7,0.5,0.8v15.4
					C128-2402.3,127.8-2402,127.5-2401.7z"/>
				<polygon class="st2" points="135,-2439.3 135,-2398.3 139.8,-2398.3 139.8,-2440 135,-2440 				"/>
				<path class="st2" d="M154.4-2421.6c-1.3-0.5-3-0.8-5.1-0.8c-2.1,0-3.8,0.2-5.1,0.8c-1.3,0.5-2.2,1.5-2.2,2.8v17
					c0,1.3,0.9,2.2,2.2,2.7c1.3,0.6,3,0.9,5.1,0.9c2.1,0,3.8-0.3,5.1-0.9c1.3-0.5,2.2-1.5,2.2-2.7v-17
					C156.6-2420.1,155.7-2421.1,154.4-2421.6z M146.9-2418.7c0-0.2,0-0.3,0.4-0.5c0.3-0.2,1-0.4,2.1-0.3c1.1,0,1.8,0.2,2.1,0.3
					c0.3,0.2,0.3,0.2,0.3,0.5v17c0,0.2,0,0.3-0.3,0.5c-0.3,0.2-1,0.4-2.1,0.4c-1,0-1.7-0.2-2.1-0.4c-0.4-0.2-0.4-0.3-0.4-0.5
					V-2418.7z"/>
				<path class="st2" d="M171.7-2421.6c-1-0.5-2.4-0.7-4.1-0.7c-1.6,0-3,0.2-4,0.7v-10.4h-4.8v33.7h0.7h4.1v-0.4
					c0.2,0.1,0.5,0.2,0.7,0.3c0.7,0.2,1.6,0.3,3.1,0.3c1.7,0,3.2-0.3,4.2-0.8c1-0.6,1.7-1.5,1.7-2.7v-17.4
					C173.4-2420.1,172.7-2421.1,171.7-2421.6z M163.7-2401.5c-0.1-0.1-0.1-0.1-0.1-0.2v-16.5c0-0.1,0.1-0.5,0.5-0.8
					c0.4-0.3,1.1-0.6,2-0.6c1,0,1.7,0.1,2,0.3c0.3,0.2,0.3,0.2,0.3,0.5v17.1c0,0.3-0.1,0.4-0.3,0.6c-0.3,0.2-0.9,0.3-1.7,0.3
					c-0.7,0-1.5-0.1-2.1-0.3C164.1-2401.3,163.8-2401.4,163.7-2401.5z"/>
				<path class="st2" d="M189.8-2409.2v-9.7c0-1.1-0.8-2.1-2-2.6c-1.2-0.5-2.9-0.8-5.2-0.8c-2.2,0-3.9,0.3-5.1,0.8
					c-1.2,0.5-2,1.4-2,2.6v17.5c0,1.1,0.8,2,2,2.5c1.2,0.5,2.9,0.8,5.1,0.8c2.3,0,4-0.3,5.2-0.8c1.2-0.5,2-1.4,2-2.5v-5.7H185v0.7
					v4.8c0,0.3,0,0.3-0.3,0.5c-0.3,0.2-0.9,0.3-2.1,0.3c-1.1,0-1.7-0.2-2-0.3c-0.2-0.2-0.3-0.2-0.3-0.5v-7.5H189.8z M182.6-2419.6
					c1,0,1.7,0.2,2,0.3c0.3,0.2,0.3,0.3,0.3,0.5v6.8h-4.6l0-6.8c0-0.2,0-0.3,0.3-0.5C181-2419.4,181.6-2419.6,182.6-2419.6
					C182.6-2419.6,182.6-2419.6,182.6-2419.6z"/>
			</g>
			<g>
				<path class="st2" d="M78.8-2417.4c5-4.3,6-6.9,6.3-8.9l0,0l0,0l0,0c0.6,4,0.6,7.6,0,10.9l0,0l0,0l0,0c0,0-0.9,6.9-5.2,13.6l0,0
					l0,0l0,0c-1.2,2-2.8,3.8-4.9,5.8l0,0l0,0l0,0C77.5-2399.4,80-2405.5,78.8-2417.4z"/>
				<path class="st2" d="M75-2396.1c2-2.8,4-7.4,4-15.5l0,0c0-1.8-0.1-3.7-0.3-5.8l0,0l0.2,0l0.1,0.1l-0.1-0.1l-0.2,0l0-0.1l0.1-0.1
					c5-4.3,6-6.8,6.3-8.8l0,0l0.3,0c0.3,2,0.4,3.9,0.4,5.7l0,0c0,1.8-0.1,3.6-0.4,5.2l0,0c0,0.1-0.9,7-5.2,13.7l0,0
					c-1.2,2-2.8,3.8-4.9,5.9l0,0L75-2396.1L75-2396.1z M79.3-2411.6c0,7-1.5,11.5-3.2,14.4l0,0c1.6-1.6,2.8-3.1,3.8-4.7l0,0
					c4.1-6.4,5.1-13.1,5.2-13.5l0,0l0,0l0,0c0.3-1.7,0.4-3.4,0.4-5.2l0,0c0-1.5-0.1-3-0.3-4.7l0,0c-0.5,1.9-1.9,4.3-6.1,8l0,0
					C79.2-2415.2,79.3-2413.3,79.3-2411.6L79.3-2411.6z"/>
			</g>
			<g>
				<path class="st1" d="M61.4-2401.6v-17.4c0-1.1-0.6-2.1-1.6-2.6c-1-0.5-2.4-0.7-4.1-0.7c-1.6,0-3,0.2-4,0.7v-0.5h-4.8v39.1h0.7
					h4.1v-15.7c0.9,0.4,2.2,0.6,3.8,0.6c1.7,0,3.2-0.3,4.2-0.8C60.7-2399.5,61.4-2400.5,61.4-2401.6z M51.8-2401.5
					c-0.1-0.1-0.1-0.1-0.1-0.2v-16.5c0-0.1,0.1-0.5,0.5-0.8c0.4-0.3,1.1-0.6,2-0.6c1,0,1.7,0.1,2,0.3c0.3,0.2,0.3,0.2,0.3,0.5v17.1
					c0,0.3-0.1,0.4-0.3,0.6c-0.3,0.2-0.9,0.3-1.7,0.3c-0.7,0-1.5-0.1-2.1-0.3C52.1-2401.3,51.9-2401.4,51.8-2401.5z"/>
				<path class="st1" d="M73.4-2419.6v-2.7h-0.7c-1.8,0-3.3,0.4-4.3,0.9v-0.7h-4.8v0.7v23.2h4.8v-19.5c0-0.5,0.2-0.9,0.9-1.2
					c0.7-0.3,1.9-0.5,3.3-0.5H73.4z"/>
				<path class="st1" d="M100.6-2421.7c-1-0.5-2.4-0.6-4-0.6c-1.6,0-3,0.4-4,0.9v-0.7h-4.8v0.7v23.2h4.8v-19.5
					c0-0.5,0.3-0.9,0.8-1.3c0.5-0.3,1.3-0.5,1.9-0.5c1,0,1.6,0.1,1.8,0.3c0.2,0.2,0.3,0.3,0.4,0.9v20.1h4.8v-20.7
					C102.3-2420.2,101.6-2421.2,100.6-2421.7z"/>
				<path class="st1" d="M111.9-2427.3l-4.8,1.3v3.8h-3v0.7v2h3v18.4c0,1.1,0.7,2,1.7,2.4c1,0.4,2.2,0.5,3.8,0.5h3.6v-2.7h-2.9
					c-0.6,0-1-0.1-1.1-0.2c-0.2-0.1-0.2-0.1-0.2-0.4v-18h4.2v-2.7h-4.2L111.9-2427.3z"/>
			</g>
		</g>
	</g>
	<g>
		<path class="st1" d="M192.9-2424.6c1.1,0,2.1,0.9,2.1,2.1c0,1.2-1,2.1-2.1,2.1c-1.1,0-2.1-0.9-2.1-2.1
			C190.8-2423.7,191.8-2424.6,192.9-2424.6z M192.9-2420.7c1,0,1.7-0.8,1.7-1.8c0-1-0.7-1.8-1.7-1.8c-1,0-1.7,0.8-1.7,1.8
			C191.2-2421.5,191.9-2420.7,192.9-2420.7z M192.1-2423.7h0.9c0.6,0,0.9,0.2,0.9,0.7c0,0.4-0.3,0.6-0.6,0.7l0.7,1.1h-0.4l-0.7-1.1
			h-0.4v1.1h-0.4V-2423.7z M192.5-2422.7h0.4c0.3,0,0.6,0,0.6-0.4c0-0.3-0.3-0.4-0.5-0.4h-0.5V-2422.7z"/>
	</g>
	<g>
		<path class="st1" d="M187.7-2386.9c1.1,0,2.1,0.9,2.1,2.1c0,1.2-1,2.1-2.1,2.1c-1.1,0-2.1-0.9-2.1-2.1
			C185.5-2386,186.5-2386.9,187.7-2386.9z M187.7-2383c1,0,1.7-0.8,1.7-1.8c0-1-0.7-1.8-1.7-1.8c-1,0-1.7,0.8-1.7,1.8
			C185.9-2383.8,186.7-2383,187.7-2383z M186.8-2386h0.9c0.6,0,0.9,0.2,0.9,0.7c0,0.4-0.3,0.6-0.6,0.7l0.7,1.1h-0.4l-0.7-1.1h-0.4
			v1.1h-0.4V-2386z M187.2-2384.9h0.4c0.3,0,0.6,0,0.6-0.4c0-0.3-0.3-0.4-0.5-0.4h-0.5V-2384.9z"/>
	</g>
</g>
<g>
	<g>
		<g>
			<path class="st0" d="M9.7,16.9c0.3-0.3,0.6-0.5,0.7-0.6c0.1-0.1,0.1-0.1,0.2-0.2c0,0,0,0,0,0l0,0l-0.1-0.1l0,0l0.1,0.1
				c2.4-2.1,4.9-4,7.8-5.6l-0.1-0.3C8.4,11.4,0.6,19.5,0,29.6l0.3,0.1c2.3-4.6,4.9-8,6.9-10.2C8.2,18.3,9.1,17.5,9.7,16.9z"/>
			<path class="st0" d="M40.5,23.6l-0.2,0.1l-0.2-0.1h0c-0.2,0.8-0.5,1.5-0.9,2.2l0,0v0c0,0,0,0,0,0c-0.3,0.6-2.6,5.3-8.5,8.8
				c-1.5,1-3.3,1.8-5.7,2.5c3.2-2,7.5-5.9,7.5-12.2c0-1-0.1-2.1-0.3-3.2c2.9-0.6,4.8-1.3,6.2-1.9l0.2-0.1l-0.1-0.2
				c-3.1-4.8-8.1-8.3-14-9.4l-0.1,0l-0.1,0.1c-1.3,2.1-2.9,5.6-2.9,10.7c0,2,0.2,4.2,0.8,6.7c-0.2,0-0.4,0-0.5,0
				c-10.6,0-17,4.1-20.8,9.2l-0.1,0.1l0,0.1c2.7,8.5,10.6,14.7,20,14.7c11.6,0,21-9.4,21-21C41.9,28.4,41.4,25.9,40.5,23.6z
				 M27.3,44.8l0-0.2C25.6,44.9,24,45,22.5,45c-5.6,0-9.2-1.7-9.2-1.7l0,0c-2.7-1.2-5.2-2.9-7.5-5.7c0.4,0.1,0.9,0.2,1.5,0.2
				c1.8,0,4.5-0.8,9.1-3.3c3.7,6.6,9.5,8.3,14.2,8.2c1.3,0,2.6-0.1,3.7-0.3c-2.7,1.1-4.9,1.8-7,2.1L27.3,44.8L27.3,44.8z"/>
		</g>
		<g>
			<polygon class="st1" points="59.7,54 61.4,54 61.4,60 62.3,60 62.3,54 64.1,54 64.1,53.3 59.7,53.3 			"/>
			<path class="st1" d="M68.8,55.2c-0.6,0-1,0.1-1.3,0.7h0v-2.6h-0.8V60h0.8v-2.8c0-0.8,0.2-1.4,1-1.4c0.7,0,0.8,0.4,0.8,1V60H70
				v-3.3C70,55.6,69.6,55.2,68.8,55.2z"/>
			<path class="st1" d="M74.6,55.2c-1.6,0-1.8,1.1-1.8,2.5c0,2.1,0.8,2.4,1.8,2.4c1,0,1.6-0.5,1.6-1.5h-0.8c0,0.5-0.3,0.9-0.8,0.9
				c-0.6,0-1-0.3-1-1.6h2.6v-0.4C76.3,55.9,76,55.2,74.6,55.2z M73.7,57.3c0-1.3,0.4-1.5,0.9-1.5c0.6,0,0.9,0.2,0.9,1.5H73.7z"/>
			<path class="st1" d="M85.1,53.3h-2V60H84v-3h1.1c0.7,0,1.9-0.3,1.9-1.8C87,53.6,86,53.3,85.1,53.3z M84.9,56.3H84V54h1.2
				c0.2,0,1,0.1,1,1.1C86.1,56.2,85.3,56.3,84.9,56.3z"/>
			<path class="st1" d="M90.6,56L90.6,56l0-0.7h-0.8V60h0.8v-2.8c0-0.6,0.2-1.3,1.1-1.3c0.1,0,0.1,0,0.2,0c0.1,0,0.1,0,0.2,0v-0.8
				C91.3,55.2,90.9,55.3,90.6,56z"/>
			<rect x="94.5" y="53.3" class="st1" width="0.9" height="0.8"/>
			<rect x="94.6" y="55.3" class="st1" width="0.8" height="4.7"/>
			<path class="st1" d="M100.3,55.2c-0.6,0-1,0.2-1.3,0.7h0v-0.6h-0.8c0,0.3,0,0.7,0,1V60H99v-2.8c0-0.6,0.1-1.4,1-1.4
				c0.7,0,0.8,0.4,0.8,0.9V60h0.8v-3.3C101.6,55.8,101.3,55.2,100.3,55.2z"/>
			<path class="st1" d="M105.6,58.8v-2.9h1v-0.6h-1V54l-0.8,0.3v0.9H104v0.6h0.8v3.3c0,0.5,0.3,0.8,1.1,0.8c0.3,0,0.5-0.1,0.8-0.1
				v-0.6c-0.2,0-0.3,0-0.3,0C105.6,59.4,105.6,59.1,105.6,58.8z"/>
			<rect x="109.1" y="55.3" class="st1" width="0.8" height="4.7"/>
			<rect x="109" y="53.3" class="st1" width="0.9" height="0.8"/>
			<path class="st1" d="M114.8,55.2c-0.6,0-1,0.2-1.3,0.7h0v-0.6h-0.8c0,0.3,0,0.7,0,1V60h0.8v-2.8c0-0.6,0.1-1.4,1-1.4
				c0.7,0,0.8,0.4,0.8,0.9V60h0.8v-3.3C116.1,55.8,115.8,55.2,114.8,55.2z"/>
			<path class="st1" d="M121.5,55.9L121.5,55.9c-0.2-0.5-0.6-0.7-1.1-0.7c-0.4,0-1.5,0.1-1.5,2.3c0,1.4,0.3,2.5,1.5,2.5
				c0.4,0,0.8-0.2,1-0.6h0v1c0,0.5-0.3,0.8-0.8,0.8c-0.4,0-0.7-0.2-0.7-0.7h-0.9c-0.1,0.9,0.6,1.3,1.4,1.3c1,0,1.7-0.3,1.7-1.3v-5.2
				h-0.8V55.9z M121.5,57.6c0,0.7,0,1.7-0.9,1.7c-0.6,0-0.9-0.4-0.9-1.9c0-0.6,0-1.7,0.9-1.7C121.5,55.8,121.5,56.9,121.5,57.6z"/>
			<path class="st1" d="M129.9,54.9c0-0.7,0.5-1,1-1c0.8,0,1,0.5,1,1.2h0.9c0.1-1.4-0.6-2-1.9-2c-1.1,0-2,0.6-2,1.8c0,2,3,1.9,3,3.3
				c0,0.8-0.5,1.1-1.2,1.1c-0.5,0-1.1-0.3-1.1-1.2V58h-0.8c0,0.6,0,2.2,2,2.1c1.1,0,2.1-0.5,2.1-1.9
				C132.9,56.1,129.9,56.3,129.9,54.9z"/>
			<path class="st1" d="M139.1,55.3h-0.8v3.1c0,0.8-0.5,1.1-0.9,1.1c-0.5,0-0.8-0.4-0.8-1v-3.3h-0.8v3.6c0,0.8,0.4,1.2,1.3,1.2
				c0.5,0,0.9-0.2,1.2-0.7h0V60h0.8c0-0.3,0-0.7,0-1V55.3z"/>
			<path class="st1" d="M143.9,55.2c-0.5,0-0.8,0.2-1.1,0.7h0v-0.6H142v6.5h0.8v-2.3h0c0.3,0.4,0.6,0.6,1,0.6c1.5,0,1.6-1.4,1.6-2.5
				C145.4,55.5,144.7,55.2,143.9,55.2z M143.7,59.5c-0.8,0-0.9-1-0.9-1.6c0-0.7-0.1-2,0.9-2c1,0,1,1,1,1.7
				C144.6,58.8,144.5,59.5,143.7,59.5z"/>
			<path class="st1" d="M149.9,55.2c-1.6,0-1.8,1.1-1.8,2.5c0,2.1,0.8,2.4,1.8,2.4c1,0,1.6-0.5,1.6-1.5h-0.8c0,0.5-0.3,0.9-0.8,0.9
				c-0.6,0-1-0.3-1-1.6h2.6v-0.4C151.6,55.9,151.3,55.2,149.9,55.2z M149,57.3c0-1.3,0.4-1.5,0.9-1.5c0.6,0,0.9,0.2,0.9,1.5H149z"/>
			<path class="st1" d="M155.2,56L155.2,56l0-0.7h-0.8V60h0.8v-2.8c0-0.6,0.2-1.3,1.1-1.3c0.1,0,0.1,0,0.2,0c0.1,0,0.1,0,0.2,0v-0.8
				C156,55.2,155.6,55.3,155.2,56z"/>
			<path class="st1" d="M160,56.4c0-0.4,0.3-0.6,0.7-0.6c0.5,0,0.7,0.3,0.7,0.8h0.8c0.1-0.9-0.7-1.3-1.5-1.3c-1.3,0-1.6,0.8-1.6,1.3
				c0,1.4,2.3,1.4,2.3,2.3c0,0.5-0.4,0.7-0.8,0.7c-0.8,0-0.8-0.6-0.8-0.9h-0.9c0,1.1,0.6,1.5,1.6,1.5c0.9,0,1.6-0.4,1.6-1.4
				C162.3,57.2,160,57.2,160,56.4z"/>
			<path class="st1" d="M166.2,58.8v-2.9h1v-0.6h-1V54l-0.8,0.3v0.9h-0.8v0.6h0.8v3.3c0,0.5,0.3,0.8,1.1,0.8c0.3,0,0.5-0.1,0.8-0.1
				v-0.6c-0.2,0-0.3,0-0.3,0C166.2,59.4,166.2,59.1,166.2,58.8z"/>
			<path class="st1" d="M171.3,55.2c-1.6,0-1.8,1.1-1.8,2.5c0,2.1,0.8,2.4,1.8,2.4c1,0,1.8-0.3,1.8-2.4
				C173.1,56.3,172.9,55.2,171.3,55.2z M171.3,59.5c-0.8,0-1-0.5-1-2.1c0-1.3,0.4-1.6,1-1.6c0.6,0,1,0.3,1,1.6
				C172.3,58.9,172.1,59.5,171.3,59.5z"/>
			<path class="st1" d="M176.7,56L176.7,56l0-0.7h-0.8V60h0.8v-2.8c0-0.6,0.2-1.3,1.1-1.3c0.1,0,0.1,0,0.2,0c0.1,0,0.1,0,0.2,0v-0.8
				C177.4,55.2,177,55.3,176.7,56z"/>
			<path class="st1" d="M182.4,55.2c-1.6,0-1.8,1.1-1.8,2.5c0,2.1,0.8,2.4,1.8,2.4c1,0,1.6-0.5,1.6-1.5h-0.8c0,0.5-0.3,0.9-0.8,0.9
				c-0.6,0-1-0.3-1-1.6h2.6v-0.4C184,55.9,183.7,55.2,182.4,55.2z M181.4,57.3c0-1.3,0.4-1.5,0.9-1.5c0.6,0,0.9,0.2,0.9,1.5H181.4z"
				/>
		</g>
		<g>
			<g>
				<path class="st2" d="M77.6,12.8c1.6-2.4,4.1-3.5,5.6-2.5c1.5,1,1.5,3.7-0.1,6.1c-1.6,2.4-4.1,3.5-5.6,2.5
					C76,17.9,76,15.2,77.6,12.8z"/>
				<path class="st2" d="M77.4,19c-0.8-0.5-1.2-1.5-1.2-2.6l0,0c0-1.2,0.4-2.5,1.2-3.7l0,0c1.2-1.8,2.9-2.9,4.4-2.9l0,0
					c0.5,0,1,0.1,1.4,0.4l0,0c0.8,0.5,1.2,1.5,1.2,2.6l0,0c0,1.2-0.4,2.5-1.2,3.7l0,0c-1.2,1.8-2.9,2.9-4.4,2.9l0,0
					C78.3,19.4,77.8,19.3,77.4,19L77.4,19z M76.6,16.5c0,1,0.3,1.9,1,2.3l0,0c0.3,0.2,0.7,0.3,1.2,0.3l0,0c1.3,0,3-1,4.1-2.8l0,0
					c0.8-1.2,1.2-2.5,1.2-3.5l0,0c0-1-0.4-1.9-1-2.3l0,0c-0.3-0.2-0.7-0.3-1.2-0.3l0,0c-1.3,0-3,1-4.1,2.8l0,0
					C77,14.1,76.6,15.4,76.6,16.5L76.6,16.5z"/>
			</g>
			<g>
				<path class="st2" d="M129,18.3c-1-0.5-2.4-0.7-4-0.7c-1.8,0-3.1,0.2-4.1,0.7c-1,0.5-1.6,1.5-1.6,2.6v16.7c0,1.3,0.7,2.3,1.8,2.9
					c1.1,0.6,2.6,0.8,4.4,0.8c1.4,0,2.6-0.1,3.5-0.6v5.4c0,0.5-0.1,0.6-0.4,0.8c-0.3,0.2-0.9,0.3-1.8,0.3c-1.1,0-1.7-0.1-2-0.3
					c-0.2-0.1-0.3-0.2-0.3-0.7v-3.5h-4.8v0.7v3.2c0,1.2,0.7,2.2,1.9,2.6c1.2,0.5,2.8,0.7,5.1,0.7c2.4,0,4.1-0.2,5.3-0.8
					c1.2-0.6,1.9-1.7,1.8-3V17.8H129V18.3z M128.5,38.3c-0.3,0.3-1,0.5-1.9,0.5c-1,0-1.6-0.2-2-0.4c-0.3-0.2-0.4-0.4-0.4-0.8V21.2
					c0-0.3,0-0.3,0.3-0.5c0.3-0.2,1-0.3,2-0.3c0.9,0,1.6,0.3,2,0.6c0.4,0.3,0.6,0.7,0.5,0.8v15.4C129,37.7,128.8,38,128.5,38.3z"/>
				<polygon class="st2" points="136,0.7 136,41.7 140.8,41.7 140.8,0 136,0 				"/>
				<path class="st2" d="M155.4,18.4c-1.3-0.5-3-0.8-5.1-0.8c-2.1,0-3.8,0.2-5.1,0.8c-1.3,0.5-2.2,1.5-2.2,2.8v17
					c0,1.3,0.9,2.2,2.2,2.7c1.3,0.6,3,0.9,5.1,0.9c2.1,0,3.8-0.3,5.1-0.9c1.3-0.5,2.2-1.5,2.2-2.7v-17
					C157.6,19.9,156.7,18.9,155.4,18.4z M147.9,21.3c0-0.2,0-0.3,0.4-0.5c0.3-0.2,1-0.4,2.1-0.3c1.1,0,1.8,0.2,2.1,0.3
					c0.3,0.2,0.3,0.2,0.3,0.5v17c0,0.2,0,0.3-0.3,0.5c-0.3,0.2-1,0.4-2.1,0.4c-1,0-1.7-0.2-2.1-0.4c-0.4-0.2-0.4-0.3-0.4-0.5V21.3z"
					/>
				<path class="st2" d="M172.7,18.4c-1-0.5-2.4-0.7-4.1-0.7c-1.6,0-3,0.2-4,0.7V8h-4.8v33.7h0.7h4.1v-0.4c0.2,0.1,0.5,0.2,0.7,0.3
					c0.7,0.2,1.6,0.3,3.1,0.3c1.7,0,3.2-0.3,4.2-0.8c1-0.6,1.7-1.5,1.7-2.7V21C174.4,19.9,173.7,18.9,172.7,18.4z M164.7,38.5
					c-0.1-0.1-0.1-0.1-0.1-0.2V21.8c0-0.1,0.1-0.5,0.5-0.8c0.4-0.3,1.1-0.6,2-0.6c1,0,1.7,0.1,2,0.3c0.3,0.2,0.3,0.2,0.3,0.5v17.1
					c0,0.3-0.1,0.4-0.3,0.6c-0.3,0.2-0.9,0.3-1.7,0.3c-0.7,0-1.5-0.1-2.1-0.3C165.1,38.7,164.8,38.6,164.7,38.5z"/>
				<path class="st2" d="M190.8,30.8V21c0-1.1-0.8-2.1-2-2.6c-1.2-0.5-2.9-0.8-5.2-0.8c-2.2,0-3.9,0.3-5.1,0.8c-1.2,0.5-2,1.4-2,2.6
					v17.5c0,1.1,0.8,2,2,2.5c1.2,0.5,2.9,0.8,5.1,0.8c2.3,0,4-0.3,5.2-0.8c1.2-0.5,2-1.4,2-2.5v-5.7H186v0.7v4.8
					c0,0.3,0,0.3-0.3,0.5c-0.3,0.2-0.9,0.3-2.1,0.3c-1.1,0-1.7-0.2-2-0.3c-0.2-0.2-0.3-0.2-0.3-0.5v-7.5H190.8z M183.6,20.4
					c1,0,1.7,0.2,2,0.3c0.3,0.2,0.3,0.3,0.3,0.5V28h-4.6l0-6.8c0-0.2,0-0.3,0.3-0.5C182,20.6,182.6,20.4,183.6,20.4
					C183.6,20.4,183.6,20.4,183.6,20.4z"/>
			</g>
			<g>
				<path class="st2" d="M79.8,22.6c5-4.3,6-6.9,6.3-8.9l0,0l0,0l0,0c0.6,4,0.6,7.6,0,10.9l0,0l0,0l0,0c0,0-0.9,6.9-5.2,13.6l0,0
					l0,0l0,0c-1.2,2-2.8,3.8-4.9,5.8l0,0l0,0l0,0C78.5,40.6,81,34.5,79.8,22.6z"/>
				<path class="st2" d="M76,43.9c2-2.8,4-7.4,4-15.5l0,0c0-1.8-0.1-3.7-0.3-5.8l0,0l0.2,0l0.1,0.1l-0.1-0.1l-0.2,0l0-0.1l0.1-0.1
					c5-4.3,6-6.8,6.3-8.8l0,0l0.3,0c0.3,2,0.4,3.9,0.4,5.7l0,0c0,1.8-0.1,3.6-0.4,5.2l0,0c0,0.1-0.9,7-5.2,13.7l0,0
					c-1.2,2-2.8,3.8-4.9,5.9l0,0L76,43.9L76,43.9z M80.3,28.4c0,7-1.5,11.5-3.2,14.4l0,0c1.6-1.6,2.8-3.1,3.8-4.7l0,0
					C85,31.7,86,25,86,24.6l0,0l0,0l0,0c0.3-1.7,0.4-3.4,0.4-5.2l0,0c0-1.5-0.1-3-0.3-4.7l0,0c-0.5,1.9-1.9,4.3-6.1,8l0,0
					C80.2,24.8,80.3,26.7,80.3,28.4L80.3,28.4z"/>
			</g>
			<g>
				<path class="st1" d="M62.4,38.4V21c0-1.1-0.6-2.1-1.6-2.6c-1-0.5-2.4-0.7-4.1-0.7c-1.6,0-3,0.2-4,0.7v-0.5h-4.8V57h0.7h4.1V41.3
					c0.9,0.4,2.2,0.6,3.8,0.6c1.7,0,3.2-0.3,4.2-0.8C61.7,40.5,62.4,39.5,62.4,38.4z M52.8,38.5c-0.1-0.1-0.1-0.1-0.1-0.2V21.8
					c0-0.1,0.1-0.5,0.5-0.8c0.4-0.3,1.1-0.6,2-0.6c1,0,1.7,0.1,2,0.3c0.3,0.2,0.3,0.2,0.3,0.5v17.1c0,0.3-0.1,0.4-0.3,0.6
					c-0.3,0.2-0.9,0.3-1.7,0.3c-0.7,0-1.5-0.1-2.1-0.3C53.1,38.7,52.9,38.6,52.8,38.5z"/>
				<path class="st1" d="M74.4,20.4v-2.7h-0.7c-1.8,0-3.3,0.4-4.3,0.9v-0.7h-4.8v0.7v23.2h4.8V22.2c0-0.5,0.2-0.9,0.9-1.2
					c0.7-0.3,1.9-0.5,3.3-0.5H74.4z"/>
				<path class="st1" d="M101.6,18.3c-1-0.5-2.4-0.6-4-0.6c-1.6,0-3,0.4-4,0.9v-0.7h-4.8v0.7v23.2h4.8V22.2c0-0.5,0.3-0.9,0.8-1.3
					c0.5-0.3,1.3-0.5,1.9-0.5c1,0,1.6,0.1,1.8,0.3c0.2,0.2,0.3,0.3,0.4,0.9v20.1h4.8V21C103.3,19.8,102.6,18.8,101.6,18.3z"/>
				<path class="st1" d="M112.9,12.7L108,14v3.8h-3v0.7v2h3V39c0,1.1,0.7,2,1.7,2.4c1,0.4,2.2,0.5,3.8,0.5h3.6v-2.7h-2.9
					c-0.6,0-1-0.1-1.1-0.2c-0.2-0.1-0.2-0.1-0.2-0.4v-18h4.2v-2.7h-4.2L112.9,12.7z"/>
			</g>
		</g>
	</g>
	<g>
		<path class="st1" d="M193.9,15.4c1.1,0,2.1,0.9,2.1,2.1c0,1.2-1,2.1-2.1,2.1c-1.1,0-2.1-0.9-2.1-2.1
			C191.8,16.3,192.8,15.4,193.9,15.4z M193.9,19.3c1,0,1.7-0.8,1.7-1.8c0-1-0.7-1.8-1.7-1.8c-1,0-1.7,0.8-1.7,1.8
			C192.2,18.5,192.9,19.3,193.9,19.3z M193.1,16.3h0.9c0.6,0,0.9,0.2,0.9,0.7c0,0.4-0.3,0.6-0.6,0.7l0.7,1.1h-0.4l-0.7-1.1h-0.4v1.1
			h-0.4V16.3z M193.5,17.3h0.4c0.3,0,0.6,0,0.6-0.4c0-0.3-0.3-0.4-0.5-0.4h-0.5V17.3z"/>
	</g>
	<g>
		<path class="st1" d="M188.7,53.1c1.1,0,2.1,0.9,2.1,2.1c0,1.2-1,2.1-2.1,2.1c-1.1,0-2.1-0.9-2.1-2.1
			C186.5,54,187.5,53.1,188.7,53.1z M188.7,57c1,0,1.7-0.8,1.7-1.8c0-1-0.7-1.8-1.7-1.8c-1,0-1.7,0.8-1.7,1.8
			C186.9,56.2,187.7,57,188.7,57z M187.8,54h0.9c0.6,0,0.9,0.2,0.9,0.7c0,0.4-0.3,0.6-0.6,0.7l0.7,1.1h-0.4l-0.7-1.1h-0.4v1.1h-0.4
			V54z M188.2,55.1h0.4c0.3,0,0.6,0,0.6-0.4c0-0.3-0.3-0.4-0.5-0.4h-0.5V55.1z"/>
	</g>
</g>
</svg>
