<svg xmlns="http://www.w3.org/2000/svg" id="header_bar" data-name="header bar" viewBox="0 0 100.39 40"><defs><style>.cls-1{fill:#008393}.cls-2{fill:#888a8c}</style></defs><path d="M20.74 13.38a2.08 2.08 0 0 1-.83-1.82 4.9 4.9 0 0 1 .87-2.62 4.12 4.12 0 0 1 3.11-2.05 1.72 1.72 0 0 1 1 .28 2.09 2.09 0 0 1 .82 1.82 4.89 4.89 0 0 1-.87 2.62 4.13 4.13 0 0 1-3.11 2 1.73 1.73 0 0 1-1-.28ZM57 12.89a7 7 0 0 0-2.79-.49 6.36 6.36 0 0 0-2.91.52 2 2 0 0 0-1.13 1.82v11.73a2.21 2.21 0 0 0 1.28 2 6.77 6.77 0 0 0 3.1.58 6.27 6.27 0 0 0 2.46-.39v3.77a.61.61 0 0 1-.28.59 2.4 2.4 0 0 1-1.24.24 3 3 0 0 1-1.38-.21.47.47 0 0 1-.2-.5V30.1h-3.4v2.75a2 2 0 0 0 1.35 1.85 9.5 9.5 0 0 0 3.56.5 8.56 8.56 0 0 0 3.69-.58 2.22 2.22 0 0 0 1.28-2.12v-20H57v.36Zm-.35 14a2.12 2.12 0 0 1-1.37.37 2.84 2.84 0 0 1-1.4-.27.56.56 0 0 1-.31-.53V14.9a.35.35 0 0 1 .23-.35 3.17 3.17 0 0 1 1.41-.23 2.35 2.35 0 0 1 1.4.39.81.81 0 0 1 .39.56v10.82a1 1 0 0 1-.39.81ZM61.9.49v28.8h3.39V0H61.9v.49zM75.5 12.94a12 12 0 0 0-7.11 0 2.19 2.19 0 0 0-1.56 2v11.94a2.22 2.22 0 0 0 1.55 1.93 10.81 10.81 0 0 0 7.13 0 2.22 2.22 0 0 0 1.55-1.93V14.93a2.19 2.19 0 0 0-1.56-1.99Zm-5.27 2a.39.39 0 0 1 .27-.36 3.23 3.23 0 0 1 1.45-.24 3.28 3.28 0 0 1 1.49.24.36.36 0 0 1 .23.37v11.93a.37.37 0 0 1-.23.35 4.21 4.21 0 0 1-2.93 0 .4.4 0 0 1-.28-.35V14.93ZM87.69 12.93a6.35 6.35 0 0 0-2.91-.52 7 7 0 0 0-2.79.49V5.61H78.6v23.68H82v-.31a2.91 2.91 0 0 0 .52.21 7.49 7.49 0 0 0 2.14.23 6.27 6.27 0 0 0 3-.59 2.12 2.12 0 0 0 1.22-1.88V14.73a2 2 0 0 0-1.19-1.8Zm-5.62 14.09a.18.18 0 0 1-.08-.13V15.28a.81.81 0 0 1 .39-.56 2.35 2.35 0 0 1 1.4-.39 3.19 3.19 0 0 1 1.42.23.35.35 0 0 1 .24.35v12a.4.4 0 0 1-.24.4 2.56 2.56 0 0 1-1.21.22 4.49 4.49 0 0 1-1.47-.24 1.36 1.36 0 0 1-.45-.28ZM100.39 21.62v-6.89A2 2 0 0 0 99 12.9a9.44 9.44 0 0 0-3.65-.55 9.23 9.23 0 0 0-3.57.55 2 2 0 0 0-1.41 1.83v12.31a2 2 0 0 0 1.4 1.79 8.91 8.91 0 0 0 3.58.59 9.11 9.11 0 0 0 3.66-.59 2 2 0 0 0 1.38-1.79v-4H97v3.85a.33.33 0 0 1-.2.34 3.11 3.11 0 0 1-1.45.23 2.92 2.92 0 0 1-1.39-.23.34.34 0 0 1-.19-.35v-5.26h6.63Zm-5-7.29a3.08 3.08 0 0 1 1.41.24.35.35 0 0 1 .24.34v4.82h-3.23V14.9a.36.36 0 0 1 .23-.34 2.88 2.88 0 0 1 1.33-.24ZM22.33 15.9v-.06c3.49-3 4.19-4.79 4.41-6.18H27a26.37 26.37 0 0 1 .32 4 22.77 22.77 0 0 1-.29 3.68 25.92 25.92 0 0 1-3.68 9.6 20.75 20.75 0 0 1-3.45 4.13l-.18-.16c1.39-2 2.81-5.18 2.81-10.88a40.67 40.67 0 0 0-.22-4.08" class="cls-1"/><path d="M10.22 26.94V14.73a2 2 0 0 0-1.13-1.82 6.35 6.35 0 0 0-2.91-.52 7 7 0 0 0-2.79.49v-.36H0V40h3.39V29a6.89 6.89 0 0 0 2.66.43 6.28 6.28 0 0 0 3-.59 2.12 2.12 0 0 0 1.17-1.9Zm-6.75.07a.18.18 0 0 1-.08-.13v-11.6a.81.81 0 0 1 .39-.56 2.35 2.35 0 0 1 1.4-.39 3.18 3.18 0 0 1 1.42.23.35.35 0 0 1 .24.35v12a.4.4 0 0 1-.25.4 2.57 2.57 0 0 1-1.21.22 4.5 4.5 0 0 1-1.47-.24 1.35 1.35 0 0 1-.44-.28ZM18.64 14.32V12.4h-.49a6.76 6.76 0 0 0-3 .63v-.5h-3.39v16.76h3.39V15.56a.93.93 0 0 1 .66-.86 5.71 5.71 0 0 1 2.34-.38h.49ZM37.73 12.84a6.86 6.86 0 0 0-2.84-.44 6.27 6.27 0 0 0-2.79.63v-.5h-3.39v16.76h3.39V15.56a1 1 0 0 1 .57-.88 2.72 2.72 0 0 1 1.35-.36 2.59 2.59 0 0 1 1.27.21.61.61 0 0 1 .25.62v14.14h3.39V14.73a2 2 0 0 0-1.2-1.89ZM45.64 8.95l-3.38.89v2.69h-2.08v1.92h2.08v12.93a1.74 1.74 0 0 0 1.17 1.66 7.17 7.17 0 0 0 2.67.37h2.5v-1.92h-2a1.66 1.66 0 0 1-.78-.14.23.23 0 0 1-.13-.25V14.45h2.95v-1.93h-3V8.95Z" class="cls-2"/></svg>