<?xml version="1.0" encoding="utf-8"?>
<!-- Generator: Adobe Illustrator 19.1.0, SVG Export Plug-In . SVG Version: 6.00 Build 0)  -->
<svg version="1.1" id="Layer_1" xmlns="http://www.w3.org/2000/svg" xmlns:xlink="http://www.w3.org/1999/xlink" x="0px" y="0px"
	 viewBox="0 0 26.3 26.2" style="enable-background:new 0 0 26.3 26.2;" xml:space="preserve">
<style type="text/css">
	.st0{fill:#FFFFFF;}
</style>
<path class="st0" d="M26,23l-7.3-7.3c1-1.6,1.6-3.5,1.6-5.5C20.4,4.6,15.8,0,10.2,0S0,4.6,0,10.2s4.6,10.2,10.2,10.2
	c2,0,3.9-0.6,5.5-1.6L23,26c0.3,0.3,0.7,0.3,1,0L26,24C26.3,23.7,26.3,23.2,26,23z M10.2,17.4c-4,0-7.3-3.3-7.3-7.3s3.3-7.3,7.3-7.3
	c4,0,7.3,3.3,7.3,7.3S14.2,17.4,10.2,17.4z"/>
</svg>
