<svg xmlns="http://www.w3.org/2000/svg" viewBox="0 0 114.613 114.613"><path d="M92.534 43.243c.014 7.203-2.237 12.923-5.855 18.048-7.895 11.182-17.934 19.942-30.42 25.689-5.59 2.572-11.489 3.612-17.64 2.321-4.388-.92-8.13-3.02-11.191-6.283-1.294-1.378-2.5-2.845-3.68-4.325-1.847-2.316-1.755-4.69.334-6.789 1.056-1.061 2.206-2.087 3.474-2.868 2.647-1.63 5.306-3.304 8.136-4.562 3.288-1.46 5.928-.656 8.317 2.024a50.096 50.096 0 0 1 2.806 3.407c2.186 2.936 4.514 3.782 7.863 2.274a39.365 39.365 0 0 0 7.046-4.118c3.995-2.927 7.708-6.215 10.547-10.337a15.454 15.454 0 0 0 1.858-3.74c.72-2.109.154-3.987-1.444-5.574a66.932 66.932 0 0 1-3.1-3.29c-2.867-3.254-3.228-5.814-1-9.566 2.214-3.726 5.02-7.024 8.433-9.72 2.67-2.106 5.036-1.825 7.308.72 2.352 2.636 4.852 5.15 6.3 8.487 1.25 2.884 1.89 5.86 1.908 8.202"/></svg>