<svg xmlns="http://www.w3.org/2000/svg" viewBox="0 0 20 20"><path d="M9.104 2.9a.988.988 0 0 1 .898-.558c.356 0 .713.186.896.557l1.93 3.912 4.317.627a1 1 0 0 1 .554 1.706l-3.123 3.044.737 4.3a1 1 0 0 1-1.451 1.054l-3.86-2.03-3.862 2.03a1 1 0 0 1-1.45-1.055l.737-4.299-3.124-3.044a1 1 0 0 1 .554-1.706l4.317-.627Zm1.362 11.727 3.861 2.03-.737-4.3a1 1 0 0 1 .287-.885l3.124-3.044-4.317-.628a1 1 0 0 1-.752-.547l-1.93-3.91-1.933 3.91c-.105.28-.38.486-.753.547l-4.317.628 3.124 3.044c.242.27.338.566.287.885l-.737 4.3 3.861-2.03c.339-.217.61-.187.932 0z"/></svg>