<?xml version="1.0" encoding="utf-8"?>
<!-- Generator: Adobe Illustrator 19.1.0, SVG Export Plug-In . SVG Version: 6.00 Build 0)  -->
<svg version="1.1" id="Layer_1" xmlns="http://www.w3.org/2000/svg" xmlns:xlink="http://www.w3.org/1999/xlink" x="0px" y="0px"
	 viewBox="0 0 21.5 22.9" style="enable-background:new 0 0 21.5 22.9;" xml:space="preserve">
<style type="text/css">
	.st0{fill:#4E4E4E;}
</style>
<path class="st0" d="M17.6,18.6c-1,0-1.9,0.7-2.1,1.7H8.8c-0.1-0.5-0.4-1-0.8-1.3l0.8-2.7h10.6l2.1-10.9L4.7,3.2L2.5,1.6l0.1-0.3
	C2.6,0.6,2,0,1.3,0C0.6,0,0,0.6,0,1.3C0,2,0.6,2.6,1.3,2.6l0.3-0.1L4,4.3l2.6,12h0.8l-0.7,2.2l-0.1,0c-1.2,0-2.2,1-2.2,2.2
	c0,1.2,1,2.2,2.2,2.2c0.9,0,1.7-0.5,2-1.3h7c0.3,0.8,1.1,1.3,2,1.3c1.2,0,2.2-1,2.2-2.2C19.7,19.6,18.8,18.6,17.6,18.6z"/>
</svg>
