<svg xmlns="http://www.w3.org/2000/svg" viewBox="0 0 114.613 114.613"><path d="M90.398 62.637v8.67l-7.51-4.335-7.51-4.335 7.51-4.336 7.51-4.336zm-10.55 5.601v7.77H20.445V43.653h10.968v24.586z"/><path d="M23.868 73.411v8.672l7.51-4.336 7.509-4.336-7.51-4.335-7.51-4.336zm53.43-26.925a2.36 2.36 0 1 1 0-4.722 2.36 2.36 0 0 1 0 4.722m-8.786 0a2.36 2.36 0 1 1 0-4.722 2.36 2.36 0 0 1 0 4.722m-8.786 0a2.36 2.36 0 1 1 0-4.722 2.36 2.36 0 0 1 0 4.722m-8.787 0a2.36 2.36 0 1 1 0-4.722 2.36 2.36 0 0 1 0 4.722m-16.521-13.61v32.357H93.82V32.877z"/></svg>