<svg width="114.613" height="114.613" viewBox="0 0 114.613 114.613" xmlns="http://www.w3.org/2000/svg">
  <path d="M678.004 389.828v-65.027L621.68 357.32l-56.325 32.508 56.325 32.524 56.324 32.519zm-79.133-42.008v-58.281H153.352v242.68h82.261V347.82z" style="fill-opacity:1;fill-rule:nonzero;stroke:none" transform="matrix(.13333 0 0 -.13333 0 114.613)"/>
  <path d="M179.012 309.02v-65.04l56.324 32.52 56.324 32.52-56.324 32.519-56.324 32.52zM579.75 510.969c-9.777 0-17.703 7.929-17.703 17.703 0 9.777 7.926 17.707 17.703 17.707s17.703-7.93 17.703-17.707c0-9.774-7.926-17.703-17.703-17.703m-65.898 0c-9.778 0-17.704 7.929-17.704 17.703 0 9.777 7.926 17.707 17.704 17.707 9.777 0 17.703-7.93 17.703-17.707 0-9.774-7.926-17.703-17.703-17.703m-65.899 0c-9.777 0-17.703 7.929-17.703 17.703 0 9.777 7.926 17.707 17.703 17.707s17.703-7.93 17.703-17.707c0-9.774-7.926-17.703-17.703-17.703m-65.898 0c-9.778 0-17.703 7.929-17.703 17.703 0 9.777 7.925 17.707 17.703 17.707s17.703-7.93 17.703-17.707c0-9.774-7.926-17.703-17.703-17.703m-123.914 102.07v-242.68h445.523v242.68z" style="fill-opacity:1;fill-rule:nonzero;stroke:none" transform="matrix(.13333 0 0 -.13333 0 114.613)"/>
</svg>
