<svg width="114.613" height="114.613" viewBox="0 0 114.613 114.613" xmlns="http://www.w3.org/2000/svg"><path d="M694.02 1533.11c.109-54.02-16.774-96.92-43.911-135.36-59.211-83.87-134.507-149.57-228.16-192.67-41.918-19.29-86.164-27.09-132.293-17.41-32.918 6.9-60.976 22.65-83.941 47.12-9.707 10.34-18.75 21.34-27.598 32.44-13.855 17.37-13.168 35.18 2.504 50.92 7.922 7.96 16.547 15.65 26.055 21.51 19.855 12.23 39.793 24.78 61.023 34.22 24.66 10.95 44.457 4.92 62.379-15.18 7.344-8.23 14.457-16.72 21.043-25.56 16.395-22.02 33.859-28.36 58.977-17.05 18.519 8.34 36.445 18.87 52.84 30.88 29.964 21.96 57.812 46.62 79.105 77.53 5.875 8.53 10.586 18.23 13.937 28.05 5.399 15.82 1.157 29.91-10.832 41.81a502 502 0 0 0-23.246 24.68c-21.507 24.4-24.214 43.6-7.5 71.74 16.602 27.95 37.645 52.68 63.246 72.9 20.02 15.8 37.77 13.69 54.813-5.4 17.641-19.77 36.394-38.62 47.25-63.65 9.379-21.63 14.172-43.95 14.309-61.52" style="fill-opacity:1;fill-rule:nonzero;stroke:none" transform="matrix(.13333 0 0 -.13333 0 247.653)"/></svg>